<?xml version="1.0" encoding="utf-8"?>
<!-- Generator: Adobe Illustrator 22.1.0, SVG Export Plug-In . SVG Version: 6.00 Build 0)  -->
<svg version="1.1" id="_x30_0aaa9ff-6469-4e7e-952e-cf942bd3b43a"
	 xmlns="http://www.w3.org/2000/svg" xmlns:xlink="http://www.w3.org/1999/xlink" x="0px" y="0px" viewBox="0 0 40 40"
	 style="enable-background:new 0 0 40 40;" xml:space="preserve">
<style type="text/css">
	.st0{fill:#FFFFFF;}
</style>
<title>adblockplus-icon-outline-black-web</title>
<g id="_x33_74b63ee-0cdc-4a92-9b9f-3e3c0f994291">
	<path class="st0" d="M10.8,23.5H7.1l-0.7,3.3H3.5l3.8-14h3.3l3.8,14h-2.9L10.8,23.5z M10.2,21l-0.3-1.3c-0.2-0.7-0.3-1.4-0.5-2.2
		c-0.2-0.8-0.3-1.5-0.5-2.3H8.9c-0.1,0.7-0.3,1.5-0.5,2.3S8.1,19,7.9,19.7L7.6,21H10.2z"/>
	<path class="st0" d="M16.1,12.8h4.2c0.6,0,1.2,0,1.8,0.2c0.5,0.1,1,0.3,1.4,0.6c0.4,0.3,0.7,0.6,1,1.1c0.2,0.4,0.3,1,0.3,1.7
		c0,0.3,0,0.6-0.1,0.9c-0.1,0.3-0.2,0.6-0.4,0.9c-0.2,0.3-0.4,0.5-0.6,0.7c-0.3,0.2-0.6,0.4-0.9,0.5v0.1c0.9,0.2,1.5,0.5,2,1.1
		c0.4,0.5,0.7,1.3,0.7,2.2c0,0.7-0.1,1.3-0.4,1.8c-0.2,0.5-0.6,0.9-1,1.3c-0.4,0.3-1,0.6-1.5,0.8c-0.6,0.2-1.2,0.3-1.8,0.2h-4.5
		V12.8z M20.2,18.5c0.7,0,1.2-0.2,1.5-0.5c0.3-0.3,0.5-0.7,0.5-1.3c0-0.5-0.2-0.9-0.5-1.1c-0.3-0.2-0.8-0.3-1.4-0.3h-1.3v3.2
		L20.2,18.5z M20.4,24.4c1.5,0,2.3-0.6,2.3-1.9c0-0.6-0.2-1.1-0.6-1.3c-0.4-0.3-0.9-0.4-1.7-0.4h-1.6v3.7H20.4z"/>
	<path class="st0" d="M27.3,12.8h4.4c0.6,0,1.3,0.1,1.9,0.2c0.6,0.1,1.1,0.4,1.5,0.8c0.4,0.4,0.8,0.9,1,1.4c0.2,0.6,0.4,1.3,0.4,2.1
		c0,0.8-0.1,1.5-0.4,2.1c-0.2,0.6-0.6,1.1-1,1.5c-0.4,0.4-1,0.7-1.5,0.9c-0.6,0.2-1.2,0.3-1.8,0.3H30v4.8h-2.7V12.8z M31.6,19.5
		c1.5,0,2.2-0.7,2.2-2.2c0-0.7-0.2-1.2-0.6-1.5c-0.4-0.3-0.9-0.5-1.7-0.5H30v4.2H31.6z"/>
</g>
<path class="st0" d="M27,3L37,13v14L27,37H13L3,27V13L13,3H27 M28.3,0H11.7L0,11.7v16.6L11.7,40h16.6L40,28.3V11.7L28.3,0z"/>
</svg>
