<?xml version="1.0" encoding="utf-8"?>
<!-- Generator: Adobe Illustrator 22.1.0, SVG Export Plug-In . SVG Version: 6.00 Build 0)  -->
<svg version="1.1" id="Laptop" xmlns="http://www.w3.org/2000/svg" xmlns:xlink="http://www.w3.org/1999/xlink" x="0px" y="0px"
	 viewBox="0 0 591 679.3" style="enable-background:new 0 0 591 679.3;" xml:space="preserve">
<style type="text/css">
	.st0{fill:#E3E4E6;}
	.st1{fill:#FFFFFF;}
	.st2{fill:#FBFBFB;}
	.st3{fill:#9698AF;}
	.st4{fill:#C6D2E2;}
	.st5{fill:#03729E;}
	.st6{fill:#0B9DD1;}
</style>
<g id="LaptopFrame" transform="translate(0 0)">
	<g id="Gruppe_48" transform="translate(0 0)">
		<path id="Pfad_95" class="st0" d="M34,0l258,186.6c0,0,4,2.3,4,16S293,498,293,498L23,401.2v7l-8,3l-7-3l-5-9L26,8l3-4L34,0z"/>
		<g id="Gruppe_46" transform="translate(23 34.93)">
			<path id="Pfad_96" class="st1" d="M266,177.6L20,0L0,338.3l265,107.8L266,177.6z"/>
		</g>
		<g id="Gruppe_47" transform="translate(23 401.198)">
			<path id="Pfad_97" class="st2" d="M568,277.4c-3.1-0.4-6.1-1-9-2c-4.5-1.5-196-57.9-196-57.9l-14-4l-10-5h-5L3,10L0,0l270,96.8
				L568,277.4z"/>
			<path id="Pfad_98" class="st3" d="M568,277.4c0,0-0.9,1.5-7,0s-213.8-59.1-219-60.9c-3.2-1.2-6.2-2.9-9-5l6-3l10,5L568,277.4z"/>
		</g>
		<path id="Pfad_99" class="st4" d="M85,431.1L301,509l163,97.8l-192-61.9L85,431.1z"/>
		<path id="Pfad_100" class="st3" d="M23,401.2l339,208.6l-6,3L11,413.2c0,0-11-7.5-11-12S23,7,23,7s5.5-7,10-7l-4,5L8,367.3
			l-2,31.9c-0.2,3.7,1.6,7.4,5,9c0.3,0.1,0.7-0.1,1,0C14.9,409.1,23,410.3,23,401.2z"/>
	</g>
</g>
<g id="Tech_Icon" transform="matrix(1, 0.017, -0.017, 1, 114.188, 179.109)">
	<g id="Gruppe_153">
		<g id="Gruppe_152">
			<path id="Pfad_848" class="st5" d="M19.5,124.6l-10.9-5.2c2.1,6.3,4.5,12.6,7.3,18.6L19.5,124.6z"/>
			<path id="Pfad_849" class="st5" d="M32.5,0.7c-3.6,0.9-6.9,2.5-9.9,4.6l10,11.2L32.5,0.7z"/>
			<path id="Pfad_850" class="st5" d="M35,154.1l-9.7,1.7c3.1,5,6.5,9.8,10.3,14.4L35,154.1z"/>
			<path id="Pfad_851" class="st5" d="M10.6,90.4L0.4,79C1,85.6,1.9,92.3,3.3,98.8L10.6,90.4z"/>
			<path id="Pfad_852" class="st5" d="M105.7,64.3l-3,12.1l8.9,5.1C109.9,75.6,107.9,69.9,105.7,64.3z"/>
			<path id="Pfad_853" class="st5" d="M17.8,31.3l-4.1-17.2c-2.7,3.7-5,7.7-6.7,11.9L17.8,31.3z"/>
			<path id="Pfad_854" class="st5" d="M54.3,174.1l-7.1,7.9c3.5,3.1,7.3,5.7,11.4,8L54.3,174.1z"/>
			<path id="Pfad_855" class="st5" d="M9.9,57.4L2.2,41.6C1,47.4,0.3,53.2,0,59L9.9,57.4z"/>
			<path id="Pfad_856" class="st5" d="M97.7,47.3c-2.7-5-5.7-9.9-9-14.6l0.5,15.2L97.7,47.3z"/>
			<path id="Pfad_857" class="st5" d="M110.7,137.3l6.2,13.5c0.9-5.2,1.4-10.4,1.7-15.6L110.7,137.3z"/>
			<path id="Pfad_858" class="st5" d="M104.3,161.8l3.4,15.2c2.2-3.7,4-7.6,5.4-11.7L104.3,161.8z"/>
			<path id="Pfad_859" class="st5" d="M110.2,107.5l8.1,9.9c-0.4-5.9-1.2-11.7-2.3-17.5L110.2,107.5z"/>
			<path id="Pfad_860" class="st5" d="M55.3,3.1C51.7,1.5,47.8,0.5,43.9,0l7.5,15L55.3,3.1z"/>
			<path id="Pfad_861" class="st5" d="M74.2,182.1l-3.7,12.5c3.5,0.8,7.2,1.1,10.8,0.8L74.2,182.1z"/>
			<path id="Pfad_862" class="st5" d="M91.6,177.6v14.9c3.2-1.5,6.1-3.6,8.6-6L91.6,177.6z"/>
			<path id="Pfad_863" class="st5" d="M78.1,19.7c-3.4-3.6-7-6.8-10.9-9.8l4.2,16.3L78.1,19.7z"/>
		</g>
		<path id="Pfad_864" class="st6" d="M111.4,126.1c0-1.1,0-2.2,0-3.3c0-1.1-0.1-2.2-0.1-3.3l-5-6c-0.3-4.6-1-9.2-1.8-13.7l3.6-4.6
			c-0.5-2.3-1-4.6-1.7-6.8l-5.4-3.1c-1.3-4.6-2.9-9.1-4.7-13.5l1.8-7.4c-1-2.1-1.9-4.2-3-6.3L90,58.6c-2.1-3.9-4.5-7.7-7.1-11.3
			L82.6,38c-1.3-1.7-2.6-3.3-3.9-4.7l-4.1,4c-2.6-2.7-5.5-5.2-8.5-7.4L63.6,20c-0.7-0.5-1.4-0.9-2.2-1.3c-0.7-0.4-1.5-0.8-2.2-1.1
			L57,24.7c-2.8-1.2-5.7-1.9-8.7-2.2l-4.6-9.1c-1.4,0-2.8,0.1-4.2,0.3v9.5c-2.7,0.8-5.3,2-7.5,3.7L26,20.6c-1.2,1-2.3,2.1-3.3,3.3
			l2.5,10.3c-2.1,2.8-3.8,5.9-5.1,9.2l-6.5-3.1c-0.6,1.8-1.2,3.7-1.7,5.7l4.7,9.4c-0.9,4.4-1.4,8.8-1.6,13.3L9,69.7v3.6
			c0,1.2,0.1,2.5,0.1,3.7l6.1,6.9c0.4,5.1,1.1,10.1,2.1,15.1l-4.4,5.1c0.6,2.5,1.3,5,2,7.5l6.5,3.2c1.6,4.9,3.4,9.6,5.5,14.3
			l-2.1,8.1c1.1,2.2,2.2,4.4,3.4,6.5l5.8-1c2.4,3.9,5,7.6,7.8,11.2l0.3,9.6c1.4,1.5,2.8,3,4.2,4.4l4.3-4.7c2.7,2.4,5.7,4.5,8.8,6.3
			l2.6,9.5c0.7,0.3,1.4,0.7,2.2,1c0.7,0.3,1.4,0.6,2.2,0.8l2.2-7.5c2.7,0.7,5.6,1,8.4,0.8l4.3,8c1.3-0.2,2.6-0.6,3.8-1V172
			c2.5-1.1,4.8-2.7,6.8-4.6l5.3,5.4c1-1.1,1.9-2.3,2.8-3.5l-2.1-9.2c1.7-2.9,3.2-5.9,4.3-9.1l5.4,2.2c0.5-1.7,1-3.5,1.4-5.4
			l-3.8-8.2c0.7-4,1.2-8.1,1.3-12.2L111.4,126.1z M63.8,144.8c-16.2-7.1-30.1-34-30.5-59.8c-0.5-25.8,12.7-39.6,28.9-31
			c15.7,8.3,28.3,34.6,28.8,59C91.3,137.3,79.4,151.7,63.8,144.8z"/>
	</g>
</g>
</svg>
