<?xml version="1.0" encoding="utf-8"?>
<!-- Generator: Adobe Illustrator 22.1.0, SVG Export Plug-In . SVG Version: 6.00 Build 0)  -->
<svg version="1.1" id="Layer_1" xmlns="http://www.w3.org/2000/svg" xmlns:xlink="http://www.w3.org/1999/xlink" x="0px" y="0px"
	 viewBox="0 0 455 445" style="enable-background:new 0 0 455 445;" xml:space="preserve">
<style type="text/css">
	.st0{fill:#0C9FC1;}
	.st1{fill:#F2F2F2;}
	.st2{fill:#CCCCCC;}
	.st3{fill:#FFFFFF;}
	.st4{filter:url(#Adobe_OpacityMaskFilter);}
	.st5{mask:url(#SVGID_1_);}
	.st6{fill:#303038;}
	.st7{fill:#353540;}
	.st8{fill:#3E3E4A;}
	.st9{fill:#3A5786;}
	.st10{fill:#E3DADA;}
	.st11{fill:#575766;}
	.st12{fill:#727282;}
	.st13{fill:#4469A5;}
	.st14{fill:#6387BD;}
	.st15{fill:#464652;}
	.st16{fill:#666675;}
	.st17{fill:#777785;}
	.st18{fill:#393943;}
	.st19{fill:#545461;}
	.st20{fill:#354F78;}
	.st21{fill:#5E5E6E;}
	.st22{fill:#547EC2;}
	.st23{fill:#2F4363;}
	.st24{fill:#535361;}
	.st25{fill:#0091B5;}
	.st26{fill:#00CCFF;}
	.st27{fill:#545463;}
	.st28{fill:#646473;}
	.st29{fill:#7D7D8C;}
	.st30{fill:#828291;}
	.st31{fill:#8B8B99;}
	.st32{fill:#A9A9BA;}
	.st33{fill:#F66181;}
	.st34{fill:#68687A;}
	.st35{fill:#888894;}
	.st36{fill:#FFCF61;}
	.st37{fill:#A8A8B3;}
	.st38{fill:#ED60A1;}
	.st39{fill:none;stroke:#ED1E45;stroke-width:5;stroke-miterlimit:10;}
	.st40{opacity:0.21;fill:url(#SVGID_2_);enable-background:new    ;}
	.st41{opacity:0.21;fill:url(#SVGID_3_);enable-background:new    ;}
	.st42{fill:#ED1E45;}
</style>
<g>
	<g>
		<rect x="114.1" y="25.5" class="st0" width="147.7" height="418.8"/>
		<g>
			<path class="st1" d="M252.3,233H123.6c-3.5,0-6.3-2.8-6.3-6.3v-87.5c0-3.5,2.8-6.3,6.3-6.3h128.7c3.5,0,6.3,2.8,6.3,6.3v87.5
				C258.6,230.2,255.8,233,252.3,233z"/>
			<g>
				<circle class="st2" cx="136.3" cy="152.5" r="11.1"/>
				<rect x="124.9" y="170.3" class="st2" width="126.2" height="53.9"/>
			</g>
			<g>
				<rect x="155.9" y="147.9" class="st2" width="53.9" height="3.8"/>
				<rect x="155.9" y="156.8" class="st2" width="41.8" height="3.8"/>
			</g>
		</g>
		<g>
			<path class="st1" d="M252.3,336.8H123.6c-3.5,0-6.3-2.8-6.3-6.3V243c0-3.5,2.8-6.3,6.3-6.3h128.7c3.5,0,6.3,2.8,6.3,6.3v87.5
				C258.6,333.9,255.8,336.8,252.3,336.8z"/>
			<g>
				<circle class="st2" cx="136.3" cy="256.3" r="11.1"/>
				<rect x="124.9" y="274" class="st2" width="126.2" height="53.9"/>
			</g>
			<g>
				<rect x="155.9" y="251.6" class="st2" width="53.9" height="3.8"/>
				<rect x="155.9" y="260.5" class="st2" width="41.8" height="3.8"/>
			</g>
		</g>
		<g>
			<path class="st1" d="M252.3,440.5H123.6c-3.5,0-6.3-2.8-6.3-6.3v-87.5c0-3.5,2.8-6.3,6.3-6.3h128.7c3.5,0,6.3,2.8,6.3,6.3v87.5
				C258.6,437.7,255.8,440.5,252.3,440.5z"/>
			<g>
				<circle class="st2" cx="136.3" cy="360" r="11.1"/>
				<rect x="124.9" y="377.8" class="st2" width="126.2" height="53.9"/>
			</g>
			<g>
				<rect x="155.9" y="355.4" class="st2" width="53.9" height="3.8"/>
				<rect x="155.9" y="364.3" class="st2" width="41.8" height="3.8"/>
			</g>
		</g>
		<path class="st1" d="M252.3,128.9H123.6c-3.5,0-6.3-2.8-6.3-6.3V35.1c0-3.5,2.8-6.3,6.3-6.3h128.7c3.5,0,6.3,2.8,6.3,6.3v87.5
			C258.6,126,255.8,128.9,252.3,128.9z"/>
		<circle class="st2" cx="136.3" cy="48.4" r="11.1"/>
		<g>
			<rect x="155.9" y="42" class="st2" width="53.9" height="3.8"/>
			<rect x="155.9" y="50.9" class="st2" width="41.8" height="3.8"/>
		</g>
		<rect x="124.9" y="66.1" class="st2" width="126.2" height="53.9"/>
	</g>
</g>
<g>
	<g>
		<rect x="270.8" y="0.5" class="st0" width="147.7" height="420.9"/>
		<g>
			<rect x="312.6" y="227" class="st2" width="53.9" height="3.8"/>
			<rect x="312.6" y="235.9" class="st2" width="41.8" height="3.8"/>
		</g>
		<g>
			<path class="st1" d="M409,312.2H280.3c-3.5,0-6.3-2.8-6.3-6.3v-87.5c0-3.5,2.8-6.3,6.3-6.3H409c3.5,0,6.3,2.8,6.3,6.3v87.5
				C415.3,309.3,412.5,312.2,409,312.2z"/>
			<g>
				<circle class="st2" cx="293" cy="231.7" r="11.1"/>
				<rect x="281.6" y="249.4" class="st2" width="126.2" height="53.9"/>
			</g>
		</g>
		<g>
			<path class="st1" d="M409,416.3H280.3c-3.5,0-6.3-2.8-6.3-6.3v-87.5c0-3.5,2.8-6.3,6.3-6.3H409c3.5,0,6.3,2.8,6.3,6.3V410
				C415.3,413.5,412.5,416.3,409,416.3z"/>
			<g>
				<circle class="st2" cx="293" cy="335.8" r="11.1"/>
				<rect x="281.6" y="353.6" class="st2" width="126.2" height="53.9"/>
			</g>
		</g>
		<g>
			<path class="st1" d="M409,208H280.3c-3.5,0-6.3-2.8-6.3-6.3v-87.5c0-3.5,2.8-6.3,6.3-6.3H409c3.5,0,6.3,2.8,6.3,6.3v87.5
				C415.3,205.2,412.5,208,409,208z"/>
			<circle class="st2" cx="293" cy="127.5" r="11.1"/>
			<g>
				<rect x="312.6" y="121.2" class="st2" width="53.9" height="3.8"/>
				<rect x="312.6" y="130" class="st2" width="41.8" height="3.8"/>
			</g>
			<rect x="281.6" y="145.2" class="st2" width="126.2" height="53.9"/>
		</g>
		<g>
			<path class="st1" d="M409,103.8H280.3c-3.5,0-6.3-2.8-6.3-6.3V10c0-3.5,2.8-6.3,6.3-6.3H409c3.5,0,6.3,2.8,6.3,6.3v87.5
				C415.3,101,412.5,103.8,409,103.8z"/>
			<circle class="st2" cx="293" cy="23.3" r="11.1"/>
			<g>
				<rect x="312.6" y="17" class="st2" width="53.9" height="3.8"/>
				<rect x="312.6" y="25.9" class="st2" width="41.8" height="3.8"/>
			</g>
			<rect x="281.6" y="41.1" class="st2" width="126.2" height="53.9"/>
		</g>
	</g>
</g>
<g>
	<circle class="st3" cx="119.6" cy="232.8" r="116.5"/>
	<defs>
		<filter id="Adobe_OpacityMaskFilter" filterUnits="userSpaceOnUse" x="16.1" y="140.6" width="233.4" height="304.5">
			<feColorMatrix  type="matrix" values="1 0 0 0 0  0 1 0 0 0  0 0 1 0 0  0 0 0 1 0"/>
		</filter>
	</defs>
	<mask maskUnits="userSpaceOnUse" x="16.1" y="140.6" width="233.4" height="304.5" id="SVGID_1_">
		<g class="st4">
			<circle class="st3" cx="119.6" cy="232.8" r="116.5"/>
		</g>
	</mask>
	<g class="st5">
		<g>
			<g>
				<path class="st6" d="M196.7,272.8L196.7,272.8c-2.8,1.1-4.2,4.2-3.1,7l31.5,81.7c1.1,2.8,4.2,4.2,7,3.1l0,0
					c2.8-1.1,4.2-4.2,3.1-7l-31.5-81.7C202.6,273.1,199.5,271.7,196.7,272.8z"/>
				<path class="st6" d="M217.8,327.5L217.8,327.5c-3.9,1.5-5.9,6-4.4,9.9l13.9,36.2c1.5,3.9,6,5.9,9.9,4.4l0,0
					c3.9-1.5,5.9-6,4.4-9.9l-13.9-36.2C226.1,328,221.7,326,217.8,327.5z"/>
			</g>
			<path class="st6" d="M31.3,174.7l-6.7-11.5c-0.3-0.6-0.1-1.4,0.5-1.7l0,0c0.6-0.3,1.4-0.1,1.7,0.5l6.7,11.5
				c1.2-0.1,2.3,0.4,3,1.5l14.3,24.7c0.8,1.5,0.3,3.3-1.1,4.2l0,0c-1.5,0.8-3.3,0.3-4.2-1.1l-14.3-24.7
				C30.5,177,30.6,175.7,31.3,174.7L31.3,174.7z M22.6,154.7l2.5,4.4c0.3,0.6,0.1,1.4-0.5,1.7l0,0c-0.6,0.3-1.4,0.1-1.7-0.5
				l-2.5-4.4c-0.3-0.6-0.1-1.4,0.5-1.7l0,0C21.5,153.9,22.2,154.1,22.6,154.7z"/>
			<path class="st3" d="M203.6,296.6h-27.7c-1.3,0-2.3,0.5-3.1,1.6l-3.5,4.8c-0.7,1-0.9,2.1-0.6,3.2l12.8,47.1H179v15.5h19.8l0,0
				h7.3h9.3c1.3,0,2.3-0.5,3.1-1.6l7.5-10.3c0.7-1,0.9-2.1,0.6-3.2l-13.5-49.5c-0.2-0.8-0.6-1.5-1.3-2l-6-4.8
				C205.2,296.8,204.5,296.6,203.6,296.6z"/>
			<path class="st6" d="M46.1,186.5L46.1,186.5c-16.5,0-30,13.5-30,30v34.6c0,16.5,13.5,30,30,30l0,0c16.5,0,30-13.5,30-30v-34.6
				C76.1,200,62.6,186.5,46.1,186.5z"/>
			<path class="st6" d="M78.1,164.9L78.1,164.9c-23.8,0-43.3,19.5-43.3,43.3v50.1c0,23.8,19.5,43.3,43.3,43.3l0,0
				c23.8,0,43.3-19.5,43.3-43.3v-50.1C121.5,184.4,102,164.9,78.1,164.9z"/>
			<path class="st7" d="M64.7,179L64.7,179c-18.6,0-33.8,15.2-33.8,33.8v39.1c0,18.6,15.2,33.8,33.8,33.8l0,0
				c18.6,0,33.8-15.2,33.8-33.8v-39.1C98.5,194.2,83.3,179,64.7,179z"/>
			<path class="st8" d="M64.7,179L64.7,179c-11.6,0-21.9,5.9-28,14.9V225c0,18.6,15.2,33.8,33.8,33.8l0,0c11.6,0,21.9-5.9,28-14.9
				v-31.1C98.5,194.2,83.3,179,64.7,179z"/>
			<path class="st6" d="M65.8,301.4L65.8,301.4c-2.2,0.2-3.9,2.1-3.7,4.3l1.6,20.2c0.2,2.2,2.1,3.9,4.3,3.7l0,0
				c2.2-0.2,3.9-2.1,3.7-4.3l-1.6-20.2C70,302.9,68,301.2,65.8,301.4z"/>
			<path class="st6" d="M67.1,310.9L67.1,310.9c-4.8,0.4-8.4,4.6-8,9.4l3.5,43.7c0.4,4.8,4.6,8.4,9.4,8l0,0c4.8-0.4,8.4-4.6,8-9.4
				l-3.5-43.7C76.1,314.1,71.9,310.5,67.1,310.9z"/>
			<path class="st6" d="M154.3,257.2h-30.5c-3.3,0-6.1,2.7-6.1,6.1l0,0c0,3.3,2.7,6.1,6.1,6.1h30.5c3.3,0,6.1-2.7,6.1-6.1l0,0
				C160.4,259.9,157.7,257.2,154.3,257.2z"/>
			<path class="st6" d="M241,272.4l-2.1-2.9c-1.5-2.1-4.4-2.6-6.5-1.1l0,0c-2.1,1.5-2.6,4.4-1.1,6.5l2.1,2.9
				c0.2,0.3,0.5,0.7,0.9,0.9c-0.2,1,0,2,0.6,2.9l0.9,1.3c-0.3,0.3-0.5,0.8-0.7,1.2l-0.9,2.6c-0.6,1.9,0.4,4,2.3,4.6l0,0
				c1.9,0.6,4-0.4,4.6-2.3l0.9-2.6c0.2-0.7,0.2-1.4,0.1-2.1c1.2-1.2,1.4-3.2,0.3-4.6l-1.4-1.9C242.1,276.1,242.2,274,241,272.4z"/>
			<path class="st6" d="M142.5,413.7L142.5,413.7c-1.4,0.8-1.9,2.7-1.1,4.2l7.7,13.2c0.8,1.4,2.7,1.9,4.2,1.1l0,0
				c1.4-0.8,1.9-2.7,1.1-4.2l-7.7-13.2C145.9,413.3,144,412.8,142.5,413.7z"/>
			<path class="st9" d="M106,356.1c-5.7,0-10.8,7.4-11.4,16.6s3.5,16.6,9.2,16.6s10.8-7.4,11.4-16.6
				C115.9,363.5,111.7,356.1,106,356.1z"/>
			<path class="st6" d="M102.2,356.1c-5.7,0-10.8,7.4-11.4,16.6s3.5,16.6,9.2,16.6s10.8-7.4,11.4-16.6
				C112,363.5,107.9,356.1,102.2,356.1z"/>
			<ellipse class="st9" cx="197.1" cy="372.7" rx="10.3" ry="16.6"/>
			<path class="st6" d="M193.7,356.1c-5.7,0-10.3,7.4-10.3,16.6s4.6,16.6,10.3,16.6s10.3-7.4,10.3-16.6S199.4,356.1,193.7,356.1z"/>
			<path class="st3" d="M176.6,174.6h-23.1c-1,0-1.9,0.5-2.6,1.3l-2.9,4c-0.6,0.8-0.8,1.7-0.5,2.7l11.2,41.3
				c0.2,0.7,0.5,1.2,1.1,1.7l10.9,8.6c0.6,0.5,1.2,0.7,2,0.7h13.9c1,0,1.9-0.5,2.6-1.3l6.2-8.6c0.6-0.8,0.8-1.7,0.5-2.7L184.7,181
				c-0.2-0.7-0.5-1.2-1.1-1.7l-5-4C178,174.8,177.3,174.6,176.6,174.6z"/>
			<path class="st10" d="M176.6,174.6h-23.1c-1,0-1.9,0.5-2.6,1.3l-2.9,4c-0.6,0.8-0.8,1.7-0.5,2.7l0.9,3.2l29.4,0.4l6.7-5.7
				c-0.2-0.5-0.5-0.9-0.9-1.2l-5-4C178,174.8,177.3,174.6,176.6,174.6z"/>
			<path class="st6" d="M173.2,177.8h-23.1c-1,0-1.9,0.5-2.6,1.3l-2.9,4c-0.6,0.8-0.8,1.7-0.5,2.7l11.2,41.3
				c0.2,0.7,0.5,1.2,1.1,1.7l10.9,8.6c0.6,0.5,1.2,0.7,2,0.7h13.9c1,0,1.9-0.5,2.6-1.3l6.2-8.6c0.6-0.8,0.8-1.7,0.5-2.7l-11.2-41.3
				c-0.2-0.7-0.5-1.2-1.1-1.7l-5-4C174.6,178,174,177.8,173.2,177.8z"/>
			<path class="st11" d="M72.7,397.7L72.7,397.7c-3.6-0.5-6.9,2.1-7.4,5.7L61,436.2c-0.5,3.6,2.1,6.9,5.7,7.4l0,0
				c3.6,0.5,6.9-2.1,7.4-5.7l4.3-32.9C78.9,401.5,76.3,398.1,72.7,397.7z"/>
			<path class="st11" d="M176,400L176,400c-3.5,0.9-5.6,4.6-4.7,8.1l8.6,32c0.9,3.5,4.6,5.6,8.1,4.7l0,0c3.5-0.9,5.6-4.6,4.7-8.1
				l-8.6-32C183.1,401.2,179.5,399.1,176,400z"/>
			<path class="st12" d="M179.8,439.7l0.1,0.5c0.9,3.5,4.6,5.6,8.1,4.7l0,0c3.5-0.9,5.6-4.6,4.7-8.1l-3.4-12.8L179.8,439.7z"/>
			<path class="st6" d="M101.3,305.1L101.3,305.1c-7.5-1-14.4,4.3-15.4,11.8l-9,68.4c-1,7.5,4.3,14.4,11.8,15.4l0,0
				c7.5,1,14.4-4.3,15.4-11.8l9-68.4C114.1,313,108.8,306.1,101.3,305.1z"/>
			<path class="st6" d="M87.7,314.3L87.7,314.3c-7.5-1-14.4,4.3-15.4,11.8l-9,68.4c-1,7.5,4.3,14.4,11.8,15.4l0,0
				c7.5,1,14.4-4.3,15.4-11.8l9-68.4C100.5,322.2,95.2,315.3,87.7,314.3z"/>
			<path class="st6" d="M71.6,331.2L71.6,331.2c-4.6-0.6-8.8,2.6-9.4,7.2l-5.5,41.9c-0.6,4.6,2.6,8.8,7.2,9.4l0,0
				c4.6,0.6,8.8-2.6,9.4-7.2l5.5-41.9C79.5,336,76.2,331.8,71.6,331.2z"/>
			<path class="st11" d="M48.8,395.1L48.8,395.1c-3.6-0.5-6.9,2.1-7.4,5.7l-4.3,32.9c-0.5,3.6,2.1,6.9,5.7,7.4l0,0
				c3.6,0.5,6.9-2.1,7.4-5.7l4.3-32.9C54.9,398.9,52.4,395.6,48.8,395.1z"/>
			<path class="st6" d="M164.9,293.6L164.9,293.6c-7.3,2-11.7,9.5-9.7,16.8l17.9,66.6c2,7.3,9.5,11.7,16.8,9.7l0,0
				c7.3-2,11.7-9.5,9.7-16.8l-17.9-66.6C179.8,296,172.2,291.7,164.9,293.6z"/>
			<path class="st6" d="M155.9,307.4L155.9,307.4c-7.3,2-11.7,9.5-9.7,16.8l17.9,66.6c2,7.3,9.5,11.7,16.8,9.7l0,0
				c7.3-2,11.7-9.5,9.7-16.8l-17.9-66.6C170.7,309.8,163.2,305.4,155.9,307.4z"/>
			<path class="st6" d="M147.5,329.1L147.5,329.1c-4.5,1.2-7.1,5.8-5.9,10.3l10.9,40.8c1.2,4.5,5.8,7.1,10.3,5.9l0,0
				c4.5-1.2,7.1-5.8,5.9-10.3L157.8,335C156.6,330.6,152,327.9,147.5,329.1z"/>
			<g>
				<path class="st6" d="M154.4,233.6L154.4,233.6c-2.5,0.7-4,3.3-3.4,5.8l5.8,21.5c0.7,2.5,3.3,4,5.8,3.4l0,0
					c2.5-0.7,4-3.3,3.4-5.8l-5.8-21.5C159.6,234.4,156.9,232.9,154.4,233.6z"/>
				<path class="st6" d="M160.8,258.4L160.8,258.4c-1.5,0.4-2.5,2-2.1,3.6l3.5,13.1c0.4,1.5,2,2.5,3.6,2l0,0c1.5-0.4,2.5-2,2-3.6
					l-3.5-13.1C164,258.9,162.4,258,160.8,258.4z"/>
				<path class="st6" d="M128.8,233.6L128.8,233.6c-2.5,0.7-4,3.3-3.4,5.8l5.8,21.5c0.7,2.5,3.3,4,5.8,3.4l0,0
					c2.5-0.7,4-3.3,3.4-5.8l-5.8-21.5C134,234.4,131.3,232.9,128.8,233.6z"/>
				<path class="st6" d="M135.2,258.4L135.2,258.4c-1.5,0.4-2.5,2-2.1,3.6l3.5,13.1c0.4,1.5,2,2.5,3.6,2l0,0c1.5-0.4,2.5-2,2-3.6
					l-3.5-13.1C138.4,258.9,136.8,258,135.2,258.4z"/>
			</g>
			<path class="st6" d="M156.4,205.1L156.4,205.1c-4.8,2-7.1,7.6-5,12.4l4.7,11.2c2,4.8,7.6,7.1,12.4,5l0,0c4.8-2,7.1-7.6,5-12.4
				l-4.7-11.2C166.8,205.3,161.2,203.1,156.4,205.1z"/>
			<path class="st6" d="M185,233L185,233c-3.1,1.3-4.5,4.9-3.2,7.9l0.1,0.2c1.3,3.1,4.9,4.5,7.9,3.2l0,0c3.1-1.3,4.5-4.9,3.2-7.9
				l-0.1-0.2C191.6,233.1,188.1,231.7,185,233z"/>
			<path class="st13" d="M182.9,241.5L182.9,241.5c-2.9,4.9-1.4,11.2,3.5,14.2l24.9,15c4.9,2.9,11.2,1.4,14.2-3.5l0,0
				c2.9-4.9,1.4-11.2-3.5-14.2l-25-15C192.2,235.1,185.8,236.6,182.9,241.5z"/>
			<path class="st9" d="M182.9,241.5L182.9,241.5c-2.9,4.9-1.4,11.2,3.5,14.2l24.9,15c1.9,1.2,4.1,1.6,6.2,1.4
				c0.4-0.5,0.8-1,1.2-1.6l0,0c2.9-4.9,1.4-11.2-3.5-14.2l-24.9-15c-1.9-1.2-4.1-1.6-6.2-1.4C183.6,240.4,183.2,240.9,182.9,241.5z"
				/>
			<path class="st9" d="M183.9,251L183.9,251c-1.8,3-0.9,7,2.2,8.9l15.6,9.4c3,1.8,7,0.9,8.9-2.2l0,0c1.8-3,0.9-7-2.2-8.9l-15.6-9.4
				C189.8,247,185.8,248,183.9,251z"/>
			<path class="st13" d="M178.8,233.7L178.8,233.7c-4,1.7-5.8,6.3-4.1,10.2l0.1,0.3c1.7,3.9,6.3,5.8,10.2,4.1l0,0
				c3.9-1.7,5.8-6.3,4.1-10.2l-0.1-0.3C187.3,233.8,182.7,232,178.8,233.7z"/>
			<path class="st6" d="M173.7,237.7L173.7,237.7c-3.1,1.3-4.5,4.9-3.2,7.9l0.1,0.2c1.3,3.1,4.9,4.5,7.9,3.2l0,0
				c3.1-1.3,4.5-4.9,3.2-7.9l-0.1-0.2C180.4,237.9,176.8,236.4,173.7,237.7z"/>
			<path class="st13" d="M172.7,240.7L172.7,240.7c-1.9,0.8-2.8,3-2,4.9l0.1,0.1c0.8,1.9,3,2.8,4.9,2l0,0c1.9-0.8,2.8-3,2-4.9
				l-0.1-0.1C176.8,240.8,174.6,239.9,172.7,240.7z"/>
			<path class="st13" d="M161.5,192.8L161.5,192.8c-5.2,2.2-7.7,8.3-5.5,13.5l11.3,26.8c2.2,5.2,8.3,7.7,13.5,5.5l0,0
				c5.2-2.2,7.7-8.3,5.5-13.5L175,198.3C172.8,193.1,166.7,190.6,161.5,192.8z"/>
			<path class="st9" d="M165.2,200.4L165.2,200.4c-2,0.9-3,3.2-2.1,5.2l10.6,25c0.9,2,3.2,3,5.2,2.1l0,0c2-0.9,3-3.2,2.1-5.2
				l-10.6-25C169.6,200.5,167.2,199.6,165.2,200.4z"/>
			<path class="st9" d="M156.9,194.8L156.9,194.8c-4.8,2-7.1,7.6-5,12.4l4.7,11.2c2,4.8,7.6,7.1,12.4,5l0,0c4.8-2,7.1-7.6,5-12.4
				l-4.7-11.2C167.3,195,161.7,192.8,156.9,194.8z"/>
			<path class="st13" d="M154.8,203.4L154.8,203.4c-3.1,1.3-4.5,4.9-3.2,8l3,7.2c1.3,3.1,4.9,4.5,8,3.2l0,0c3.1-1.3,4.5-4.9,3.2-8
				l-3-7.2C161.4,203.5,157.8,202.1,154.8,203.4z"/>
			<path class="st6" d="M155.1,208.8L155.1,208.8c-1.5,0.6-2.2,2.4-1.6,3.8l1.5,3.5c0.6,1.5,2.4,2.2,3.8,1.6l0,0
				c1.5-0.6,2.2-2.4,1.6-3.8l-1.5-3.5C158.3,208.9,156.6,208.2,155.1,208.8z"/>
			<path class="st13" d="M156.8,210.9L156.8,210.9c-0.7,0.3-1,1.1-0.7,1.8l0.7,1.6c0.3,0.7,1.1,1,1.8,0.7l0,0c0.7-0.3,1-1.1,0.7-1.8
				l-0.7-1.6C158.3,210.9,157.5,210.6,156.8,210.9z"/>
			<path class="st9" d="M184.4,222l-6.2,2.6c-1,0.4-1.5,1.6-1.1,2.6l0,0c0.4,1,1.6,1.5,2.6,1.1l6.2-2.6c1-0.4,1.5-1.6,1.1-2.6l0,0
				C186.6,222,185.4,221.5,184.4,222z"/>
			<path class="st9" d="M181.9,216.1l-6.2,2.6c-1,0.4-1.5,1.6-1.1,2.6l0,0c0.4,1,1.6,1.5,2.6,1.1l6.2-2.6c1-0.4,1.5-1.6,1.1-2.6l0,0
				C184.1,216.2,182.9,215.7,181.9,216.1z"/>
			<path class="st9" d="M179.5,210.3l-6.2,2.6c-1,0.4-1.5,1.6-1.1,2.6l0,0c0.4,1,1.6,1.5,2.6,1.1l6.2-2.6c1-0.4,1.5-1.6,1.1-2.6l0,0
				C181.6,210.3,180.5,209.9,179.5,210.3z"/>
			<path class="st9" d="M177,204.4l-6.2,2.6c-1,0.4-1.5,1.6-1.1,2.6l0,0c0.4,1,1.6,1.5,2.6,1.1l6.2-2.6c1-0.4,1.5-1.6,1.1-2.6l0,0
				C179.2,204.5,178,204,177,204.4z"/>
			<path class="st14" d="M217.2,253c-5.3,0-9.6,4.3-9.6,9.6c0,5.3,4.3,9.6,9.6,9.6s9.6-4.3,9.6-9.6C226.8,257.4,222.5,253,217.2,253
				z"/>
			<path class="st9" d="M174.5,198.6l-6.2,2.6c-1,0.4-1.5,1.6-1.1,2.6l0,0c0.4,1,1.6,1.5,2.6,1.1l6.2-2.6c1-0.4,1.5-1.6,1.1-2.6l0,0
				C176.7,198.7,175.5,198.2,174.5,198.6z"/>
			<path class="st6" d="M215.2,260L215.2,260c-1.7,2.9-0.8,6.6,2.1,8.3l10.9,6.6c2.9,1.7,6.6,0.8,8.3-2.1l0,0
				c1.7-2.9,0.8-6.6-2.1-8.3l-10.9-6.6C220.7,256.2,216.9,257.1,215.2,260z"/>
			<path class="st13" d="M192.1,242.6L192.1,242.6c-1.4,2.5-0.6,5.7,1.9,7.1l9.5,5.5c2.5,1.4,5.7,0.6,7.1-1.9l0,0
				c1.4-2.5,0.6-5.7-1.9-7.1l-9.5-5.5C196.7,239.3,193.5,240.1,192.1,242.6z"/>
			<g>
				<path class="st15" d="M166.1,184.8h-14.8c-0.7,0-1.3,0.3-1.6,0.8l-1.9,2.5c-0.4,0.5-0.5,1.1-0.3,1.7l6.9,25.2H153v8.3h10.6l0,0
					h3.9h5c0.7,0,1.3-0.3,1.6-0.8l4-5.5c0.4-0.5,0.5-1.1,0.3-1.7l-7.2-26.5c-0.1-0.4-0.3-0.8-0.7-1.1l-3.2-2.5
					C167,185,166.6,184.8,166.1,184.8z"/>
				<path class="st11" d="M166.1,184.8h-14.8c-0.7,0-1.3,0.3-1.6,0.8l-1.9,2.5c-0.4,0.5-0.5,1.1-0.3,1.7l6.9,25.2H153v1.3h25.5
					c0.1-0.3,0.1-0.7,0-1.1l-7.2-26.5c-0.1-0.4-0.3-0.8-0.7-1.1l-3.2-2.5C167,185,166.6,184.8,166.1,184.8z"/>
				<path class="st16" d="M166.1,184.8h-14.8c-0.7,0-1.3,0.3-1.6,0.8l-1.9,2.5c-0.1,0.1-0.2,0.3-0.2,0.4h23.7
					c-0.1-0.3-0.3-0.6-0.6-0.8l-3.2-2.5C167,185,166.6,184.8,166.1,184.8z"/>
				<path class="st6" d="M152.1,184.8h-14.8c-0.7,0-1.2,0.3-1.6,0.8l-1.9,2.5c-0.4,0.5-0.5,1.1-0.3,1.7l7.2,26.5
					c0.1,0.4,0.3,0.8,0.7,1.1l7,5.5c0.4,0.3,0.8,0.4,1.3,0.4h8.9c0.7,0,1.2-0.3,1.6-0.8l4-5.5c0.4-0.5,0.5-1.1,0.3-1.7l-7.2-26.5
					c-0.1-0.4-0.3-0.8-0.7-1.1l-3.2-2.5C153,185,152.6,184.8,152.1,184.8z"/>
				<path class="st6" d="M156,184.8h-1.1c0.5,0,0.9,0.2,1.2,0.4l3.2,2.5c0.4,0.3,0.6,0.6,0.7,1.1l7.2,26.5c0.2,0.6,0.1,1.2-0.3,1.7
					l-4,5.5c-0.4,0.5-1,0.8-1.6,0.8h1.1c0.7,0,1.3-0.3,1.6-0.8l4-5.5c0.4-0.5,0.5-1.1,0.3-1.7l-7.2-26.5c-0.1-0.4-0.3-0.8-0.7-1.1
					l-3.2-2.5C156.9,185,156.5,184.8,156,184.8z"/>
			</g>
			<path class="st3" d="M167.9,250.8h19.9c0.9,0,1.8,0.4,2.7,1.1l4,3.4c0.8,0.7,1.3,1.5,1.4,2.3l5.7,35.5c0.1,0.6,0,1.1-0.3,1.4
				L195,302c-0.3,0.4-0.8,0.6-1.4,0.6h-11.9c-0.9,0-1.8-0.4-2.7-1.1l-8.6-7.4c-0.8-0.7-1.3-1.5-1.4-2.3l-5.7-35.5
				c-0.1-0.6,0-1.1,0.3-1.4l2.9-3.4C166.8,251,167.2,250.8,167.9,250.8z"/>
			<path class="st6" d="M164,254.1h19.9c0.9,0,1.8,0.4,2.7,1.1l4,3.4c0.8,0.7,1.3,1.5,1.4,2.3l5.7,35.5c0.1,0.6,0,1.1-0.3,1.4
				l-6.2,7.4c-0.3,0.4-0.8,0.6-1.4,0.6h-11.9c-0.9,0-1.8-0.4-2.7-1.1l-8.6-7.4c-0.8-0.7-1.3-1.5-1.4-2.3l-5.7-35.5
				c-0.1-0.6,0-1.1,0.3-1.4l2.9-3.4C162.9,254.2,163.4,254.1,164,254.1z"/>
			<path class="st17" d="M177,264.9c-11.1,0-20.1,9-20.1,20.1s9,20.1,20.1,20.1s20.1-9,20.1-20.1S188.1,264.9,177,264.9z"/>
			<path class="st15" d="M157.7,279.4c-0.5,1.8-0.8,3.7-0.8,5.7c0,11.1,9,20.1,20.1,20.1s20.1-9,20.1-20.1c0-2-0.3-3.9-0.8-5.7
				H157.7z"/>
			<path class="st6" d="M189.5,300.8c3.7-3,6.6-5.9,7.3-12.2c-0.8,1.5-2.4,2.5-4.2,2.5c-2.2,0-4-1.4-4.6-3.4h-13.4v13.1H189.5z"/>
			<path class="st6" d="M168,264.9c-11.1,0-20.1,9-20.1,20.1s9,20.1,20.1,20.1s20.1-9,20.1-20.1S179.1,264.9,168,264.9z"/>
			<g>
				<circle class="st18" cx="151.1" cy="254.7" r="8.9"/>
				<path class="st6" d="M174.7,243.7h-18.9c-6,0-10.9,4.9-10.9,10.9l0,0c0,6,4.9,10.9,10.9,10.9h18.9V243.7z"/>
				<path class="st15" d="M174.7,243.7h-18.9c-4.4,0-8.2,2.7-10,6.5h28.9V243.7z"/>
				<path class="st17" d="M174.7,243.7c-6.1,0-11,4.9-11,11c0,6.1,4.9,11,11,11s11-4.9,11-11S180.8,243.7,174.7,243.7z"/>
				<circle class="st19" cx="176.4" cy="254.7" r="8.9"/>
			</g>
			<path class="st13" d="M201.3,296.6h-27.7c-1.3,0-2.3,0.5-3.1,1.6L167,303c-0.7,1-0.9,2.1-0.6,3.2l12.8,47.1h-2.5v15.5h19.8l0,0
				h7.3h9.3c1.3,0,2.3-0.5,3.1-1.6l7.5-10.3c0.7-1,0.9-2.1,0.6-3.2L211,304.1c-0.2-0.8-0.6-1.5-1.3-2l-6-4.8
				C203,296.8,202.2,296.6,201.3,296.6z"/>
			<path class="st20" d="M176.9,356.3v12.4h19.8l0,0h7.3h9.3c1.3,0,2.3-0.5,3.1-1.6l7.5-10.3c0.1-0.2,0.2-0.3,0.3-0.5H176.9z"/>
			<path class="st6" d="M172.6,192.8h-12.9c-0.6,0-1.1,0.3-1.4,0.7l-1.6,2.2c-0.3,0.4-0.4,1-0.3,1.5l6.3,23.1
				c0.1,0.4,0.3,0.7,0.6,0.9l6.1,4.8c0.3,0.3,0.7,0.4,1.1,0.4h7.7c0.6,0,1.1-0.3,1.4-0.7l3.5-4.8c0.3-0.4,0.4-1,0.3-1.5l-6.3-23.1
				c-0.1-0.4-0.3-0.7-0.6-0.9l-2.8-2.2C173.3,193,173,192.8,172.6,192.8z"/>
			<path class="st21" d="M173.8,191.1h-12.9c-0.6,0-1.1,0.3-1.4,0.7l-1.6,2.2c-0.3,0.4-0.4,1-0.3,1.5l6.3,23.1
				c0.1,0.4,0.3,0.7,0.6,0.9l6.1,4.8c0.3,0.3,0.7,0.4,1.1,0.4h7.7c0.6,0,1.1-0.3,1.4-0.7l3.5-4.8c0.3-0.4,0.4-1,0.3-1.5l-6.3-23.1
				c-0.1-0.4-0.3-0.7-0.6-0.9l-2.8-2.2C174.6,191.2,174.3,191.1,173.8,191.1z"/>
			<path class="st17" d="M182.8,210.9l-4.1-15l0,0l-1.7-1.3c-0.2-0.2-0.4-0.2-0.7-0.2h-7.7c-0.3,0-0.6,0.2-0.9,0.4l-1,1.3
				c-0.2,0.3-0.3,0.6-0.2,0.9l3.7,13.8c0.1,0.2,0.2,0.4,0.4,0.6l3.6,2.9c0.2,0.2,0.4,0.2,0.7,0.2h4.6c0.4,0,0.7-0.2,0.9-0.4l2.1-2.9
				C182.7,211,182.8,211,182.8,210.9z"/>
			<path class="st22" d="M172.9,329.6l6.4,23.6h-2.5v3.1h47.4c0.4-0.8,0.5-1.8,0.3-2.7L211,304.1c-0.2-0.8-0.7-1.5-1.3-2h-36.8
				V329.6z"/>
			<polygon class="st3" points="213.2,311.9 211.6,306.2 182.8,306.2 182.8,311.9 			"/>
			<path class="st20" d="M207.3,356.3h8.1l-4.6-22.8c-0.1-0.3-0.3-0.5-0.7-0.5h-6.6c-0.2,0-0.4,0.1-0.6,0.3
				c-0.1,0.2-0.2,0.4-0.2,0.6L207.3,356.3z"/>
			<path class="st6" d="M156.2,257.2h-17.8c-2.3,0-4.2,1.9-4.2,4.2l0,0c0,2.3,1.9,4.2,4.2,4.2h17.8c2.3,0,4.2-1.9,4.2-4.2l0,0
				C160.4,259.1,158.5,257.2,156.2,257.2z"/>
			<path class="st20" d="M175.2,296.6h-27.7c-1.3,0-2.3,0.5-3.1,1.6l-3.5,4.8c-0.7,1-0.9,2.1-0.6,3.2l13.5,49.5
				c0.2,0.8,0.6,1.5,1.3,2l13.1,10.3c0.7,0.5,1.5,0.8,2.3,0.8h16.6c1.3,0,2.3-0.5,3.1-1.6l7.5-10.3c0.7-1,0.9-2.1,0.6-3.2
				l-13.5-49.5c-0.2-0.8-0.6-1.5-1.3-2l-6-4.8C176.8,296.8,176.1,296.6,175.2,296.6z"/>
			<polygon class="st23" points="190.9,326.3 192.5,331.8 162.6,331.8 169.2,323.5 			"/>
			<path class="st6" d="M174.9,296.6h-28.4c-1.3,0-2.4,0.6-3.1,1.6l-3.5,4.9c-0.7,1-0.9,2.1-0.6,3.3l13.5,49.7l34-44.7l-1.9-7
				c-0.2-0.8-0.7-1.5-1.4-2l-6.2-4.9C176.6,296.8,175.8,296.6,174.9,296.6z"/>
			<path class="st6" d="M160.4,235.9h-38.1c-5.9,0-10.6,4.8-10.6,10.6l0,0c0,5.9,4.8,10.6,10.6,10.6h38.1c5.9,0,10.6-4.8,10.6-10.6
				l0,0C171,240.7,166.3,235.9,160.4,235.9z"/>
			<path class="st6" d="M181.9,249.5c1.5,1.5,2.3,3.5,2.3,5.5s-0.8,4-2.3,5.5s-3.5,2.3-5.5,2.3s-4-0.8-5.5-2.3s-2.3-3.5-2.3-5.5
				s0.8-4,2.3-5.5s3.5-2.3,5.5-2.3S180.4,247.9,181.9,249.5L181.9,249.5z M179.5,249.7c-0.9-0.5-2-0.8-3.1-0.8
				c-1.6,0-3.1,0.6-4.3,1.8s-1.8,2.8-1.8,4.3c0,1.1,0.3,2.1,0.8,3c0-0.1,0.1-0.1,0.1-0.2l8.1-8.1
				C179.3,249.8,179.4,249.7,179.5,249.7L179.5,249.7z M176.4,261.1c1.6,0,3.1-0.6,4.3-1.8c1.2-1.2,1.8-2.8,1.8-4.3
				c0-1.1-0.3-2.1-0.8-3c0,0.1-0.1,0.1-0.1,0.2l-8.1,8.1c0,0-0.1,0.1-0.2,0.1C174.3,260.8,175.4,261.1,176.4,261.1z"/>
			<path class="st3" d="M155.1,181.6c0,0.9,0.8,1.7,1.7,1.7s1.7-0.8,1.7-1.7v-13.1c0-0.4-0.1-0.7-0.3-1l-8.7-15
				c-0.3-0.5-0.9-0.9-1.5-0.9h-26.3c-0.9,0-1.7,0.8-1.7,1.7s0.8,1.7,1.7,1.7H147l8,13.9v12.7H155.1z"/>
			<path class="st6" d="M131.8,183h-12.9c-2.5,0-4.5,2-4.5,4.5l0,0c0,2.5,2,4.5,4.5,4.5h12.9c2.5,0,4.5-2,4.5-4.5l0,0
				C136.3,185,134.3,183,131.8,183z"/>
			<path class="st18" d="M153.9,181.6c0,0.9,0.8,1.7,1.7,1.7s1.7-0.8,1.7-1.7v-13.1c0-0.4-0.1-0.7-0.3-1l-8.7-15
				c-0.3-0.5-0.9-0.9-1.5-0.9h-26.3c-0.9,0-1.7,0.8-1.7,1.7s0.8,1.7,1.7,1.7h25.3l8,13.9v12.7H153.9z"/>
			<path class="st6" d="M124.7,140.9L124.7,140.9c-1,0.6-1.4,1.9-0.8,3l7.3,12.6c0.6,1,1.9,1.4,3,0.8l0,0c1-0.6,1.4-1.9,0.8-3
				l-7.3-12.6C127,140.7,125.7,140.3,124.7,140.9z"/>
			<path class="st11" d="M132.6,154.5L132.6,154.5c-0.6,0.3-0.8,1-0.4,1.6l8.3,14.3c0.3,0.6,1,0.8,1.6,0.4l0,0
				c0.6-0.3,0.8-1,0.4-1.6l-8.3-14.3C133.8,154.4,133.1,154.2,132.6,154.5z"/>
			<path class="st18" d="M117.2,157.1h-14.8c-3.2,0-5.8,2.6-5.8,5.8v5.1c0,3.2,2.6,5.8,5.8,5.8h14.8c3.2,0,5.8-2.6,5.8-5.8v-5
				C123,159.8,120.4,157.1,117.2,157.1z"/>
			<path class="st15" d="M107.8,157.1h-2.9c-3.2,0-5.8,2.6-5.8,5.8v5.1c0,3.2,2.6,5.8,5.8,5.8h2.9c-3.2,0-5.8-2.6-5.8-5.8v-5
				C102,159.8,104.6,157.1,107.8,157.1z"/>
			<path class="st15" d="M136.1,153.7h-18.9c-5.1,0-9.2,4.1-9.2,9.2v15.6c0,5.1,4.1,9.2,9.2,9.2h18.9c5.1,0,9.2-4.1,9.2-9.2v-15.6
				C145.3,157.8,141.2,153.7,136.1,153.7z"/>
			<path class="st24" d="M136.1,153.7h-18.9c-2.8,0-5.2,1.2-6.9,3.2H143C141.3,154.9,138.8,153.7,136.1,153.7z"/>
			<path class="st6" d="M123.4,153.7h-8c-5.1,0-9.2,4.1-9.2,9.2v15.6c0,5.1,4.1,9.2,9.2,9.2h8c5.1,0,9.2-4.1,9.2-9.2v-15.6
				C132.6,157.8,128.4,153.7,123.4,153.7z"/>
			<path class="st6" d="M116.8,163.2h-16c-2.9,0-5.2,2.4-5.2,5.2v4.5c0,2.9,2.4,5.2,5.2,5.2h16c2.9,0,5.2-2.4,5.2-5.2v-4.5
				C122.1,165.6,119.7,163.2,116.8,163.2z"/>
			<path class="st15" d="M116.8,163.2h-13.7v3.6h18.7C121.1,164.7,119.2,163.2,116.8,163.2z"/>
			<path class="st18" d="M112.6,163.2h-16c-2.9,0-5.2,2.4-5.2,5.2v4.5c0,2.9,2.4,5.2,5.2,5.2h16c2.9,0,5.2-2.4,5.2-5.2v-4.5
				C117.8,165.6,115.5,163.2,112.6,163.2z"/>
			<rect x="99.5" y="163.2" class="st15" width="0.5" height="15"/>
			<rect x="98.7" y="163.2" class="st6" width="0.8" height="15"/>
			<polygon class="st18" points="146,160.7 136.4,160.7 136.4,181.9 146,181.9 149.9,178 149.9,164.6 			"/>
			<polygon class="st11" points="146,160.7 136.4,160.7 136.4,164.6 149.9,164.6 			"/>
			<polygon class="st6" points="136.6,160.7 127.1,160.7 127.1,181.9 136.6,181.9 140.5,178 140.5,164.6 			"/>
			<polygon class="st15" points="136.9,160.7 135.1,160.7 139,164.6 139,178 135.1,181.9 136.9,181.9 140.9,178 140.9,164.6 			"/>
			<path class="st25" d="M146.3,166.4h-2c-0.5,0-0.8,0.4-0.8,0.8v2c0,0.4,0.4,0.8,0.8,0.8h2c0.5,0,0.8-0.4,0.8-0.8v-2
				C147.1,166.8,146.8,166.4,146.3,166.4z"/>
			<path class="st26" d="M146.9,170.9h-3.1c-0.1,0-0.2,0.1-0.2,0.2v0.6c0,0.1,0.1,0.2,0.2,0.2h3.1c0.1,0,0.2-0.1,0.2-0.2v-0.6
				C147.1,171,147,170.9,146.9,170.9z"/>
			<path class="st26" d="M146.9,172.9h-3.1c-0.1,0-0.2,0.1-0.2,0.2v0.6c0,0.1,0.1,0.2,0.2,0.2h3.1c0.1,0,0.2-0.1,0.2-0.2v-0.6
				C147.1,173,147,172.9,146.9,172.9z"/>
			<path class="st27" d="M129.1,165.6c-3.2,0-5.8,2.6-5.8,5.8s2.6,5.8,5.8,5.8c3.2,0,5.8-2.6,5.8-5.8
				C134.9,168.2,132.3,165.6,129.1,165.6z"/>
			<path class="st15" d="M125.4,165.6c-3.2,0-5.8,2.6-5.8,5.8s2.6,5.8,5.8,5.8s5.8-2.6,5.8-5.8C131.2,168.2,128.6,165.6,125.4,165.6
				z"/>
			<path class="st18" d="M125.4,168c-1.9,0-3.4,1.5-3.4,3.4s1.5,3.4,3.4,3.4s3.4-1.5,3.4-3.4S127.3,168,125.4,168z"/>
			<path class="st15" d="M107,140.9L107,140.9c-1,0.6-1.4,1.9-0.8,3l7.3,12.6c0.6,1,1.9,1.4,3,0.8l0,0c1-0.6,1.4-1.9,0.8-3
				l-7.3-12.6C109.4,140.7,108.1,140.3,107,140.9z"/>
			<path class="st11" d="M114.9,154.5L114.9,154.5c-0.6,0.3-0.8,1-0.4,1.6l8.3,14.3c0.3,0.6,1,0.8,1.6,0.4l0,0
				c0.6-0.3,0.8-1,0.4-1.6l-8.3-14.3C116.2,154.4,115.5,154.2,114.9,154.5z"/>
			<path class="st11" d="M124,167.4c-2.2,0-4,1.8-4,4s1.8,4,4,4s4-1.8,4-4S126.2,167.4,124,167.4z"/>
			<path class="st18" d="M122.5,168.9c-1.4,0-2.5,1.1-2.5,2.5s1.1,2.5,2.5,2.5s2.5-1.1,2.5-2.5C124.9,170,123.8,168.9,122.5,168.9z"
				/>
			<path class="st27" d="M132.3,174.5H123c-1.8,0-3.3,1.5-3.3,3.3l0,0c0,1.8,1.5,3.3,3.3,3.3h9.3c1.8,0,3.3-1.5,3.3-3.3l0,0
				C135.6,176,134.1,174.5,132.3,174.5z"/>
			<path class="st28" d="M132.4,174.5L132.4,174.5c-1.8,0-3.2,1.4-3.2,3.2v0.2c0,1.8,1.4,3.2,3.2,3.2l0,0c1.8,0,3.2-1.4,3.2-3.2
				v-0.2C135.6,176,134.2,174.5,132.4,174.5z"/>
			<path class="st18" d="M132.4,175.6L132.4,175.6c-1.2,0-2.2,1-2.2,2.2v0.1c0,1.2,1,2.2,2.2,2.2l0,0c1.2,0,2.2-1,2.2-2.2v-0.1
				C134.6,176.6,133.6,175.6,132.4,175.6z"/>
			<path class="st26" d="M131.5,176.7L131.5,176.7c-0.6,0-1.1,0.5-1.1,1.1v0.1c0,0.6,0.5,1.1,1.1,1.1l0,0c0.6,0,1.1-0.5,1.1-1.1
				v-0.1C132.6,177.2,132.1,176.7,131.5,176.7z"/>
			<path class="st18" d="M128.1,174.5h-1.9c-1.8,0-3.3,1.5-3.3,3.3l0,0c0,1.8,1.5,3.3,3.3,3.3h1.9c-1.8,0-3.3-1.5-3.3-3.3l0,0
				C124.8,176,126.3,174.5,128.1,174.5z"/>
			<path class="st28" d="M154.5,175.6h-18.8c-0.6,0-1.2,0.5-1.2,1.2l0,0c0,0.6,0.5,1.2,1.2,1.2h18.8c0.6,0,1.2-0.5,1.2-1.2l0,0
				C155.7,176.1,155.1,175.6,154.5,175.6z"/>
			<path class="st28" d="M154.5,179.2h-18.8c-0.6,0-1.2,0.5-1.2,1.2l0,0c0,0.6,0.5,1.2,1.2,1.2h18.8c0.6,0,1.2-0.5,1.2-1.2l0,0
				C155.7,179.8,155.1,179.2,154.5,179.2z"/>
			<path class="st29" d="M132.9,181.6c0,0.9,0.8,1.7,1.7,1.7s1.7-0.8,1.7-1.7v-13.1c0-0.4-0.1-0.7-0.3-1l-8.7-15
				c-0.3-0.5-0.9-0.9-1.5-0.9H99.5c-0.9,0-1.7,0.8-1.7,1.7s0.8,1.7,1.7,1.7h25.3l8,13.9v12.7H132.9z"/>
			<path class="st15" d="M158.7,184.8h-28.1c-1.3,0-2.4,0.6-3.1,1.6l-3.5,4.8c-0.7,1-0.9,2.1-0.6,3.3l13,47.7h-2.5v15.7H154l0,0h7.4
				h9.4c1.3,0,2.4-0.6,3.1-1.6l7.6-10.4c0.7-1,0.9-2.1,0.6-3.3l-13.6-50.1c-0.2-0.8-0.7-1.5-1.3-2l-6.1-4.8
				C160.4,185.1,159.6,184.8,158.7,184.8z"/>
			<polygon class="st6" points="182.2,200.6 161.1,200.6 162.4,206.4 183.4,206.4 			"/>
			<path class="st3" d="M173.7,199.1c0.6,0,1.2,0.2,1.7,0.6c0.5,0.4,0.9,0.9,1,1.5l1.1,4.4c0.2,0.6,0.1,1.1-0.2,1.5
				s-0.8,0.6-1.4,0.6h-3c-0.6,0-1.2-0.2-1.7-0.6c-0.5-0.4-0.9-0.9-1-1.5l-1.1-4.4c-0.2-0.6-0.1-1.1,0.2-1.5s0.8-0.6,1.4-0.6H173.7
				L173.7,199.1z M170.6,200.8c-0.1,0.1-0.1,0.3-0.1,0.5l1.1,4.4c0.1,0.2,0.2,0.4,0.3,0.5c0.2,0.1,0.4,0.2,0.6,0.2h3
				c0.2,0,0.4-0.1,0.5-0.2c0.1-0.1,0.1-0.3,0.1-0.5l-1.1-4.4c-0.1-0.2-0.2-0.4-0.3-0.5c-0.2-0.1-0.4-0.2-0.6-0.2h-3
				C170.9,200.6,170.7,200.6,170.6,200.8z"/>
			<path class="st17" d="M158.7,184.8h-28.1c-1.3,0-2.4,0.6-3.1,1.6l-3.5,4.8c-0.7,1-0.9,2.1-0.6,3.3l13,47.7h-2.5v2.1h48.4
				c0.1-0.5,0.1-1.1-0.1-1.7l-13.6-50.1c-0.2-0.8-0.7-1.5-1.3-2l-6.1-4.8C160.4,185.1,159.6,184.8,158.7,184.8z"/>
			<path class="st17" d="M158.7,184.8h-28.1c-1.3,0-2.4,0.6-3.1,1.6l-3.5,4.8c-0.7,1-0.9,2.1-0.6,3.3l11.2,41.1l35.9-35.9l-2-7.2
				c-0.2-0.8-0.7-1.5-1.3-2l-6.1-4.8C160.4,185.1,159.6,184.8,158.7,184.8z"/>
			<path class="st30" d="M123.5,192.2c-0.3,0.7-0.3,1.5-0.1,2.3l4.7,17.3h45.7l-5.2-19.3c0-0.1-0.1-0.2-0.1-0.3H123.5z"/>
			<path class="st3" d="M180.5,236.2H144v-3.7h35.5L180.5,236.2L180.5,236.2z M140.6,229.6v-9.1h35.6l2.5,9.1H140.6z"/>
			<path class="st31" d="M158.7,184.8h-28.1c-1.3,0-2.4,0.6-3.1,1.6l-2.5,3.4h41.3l-5.3-4.1C160.4,185.1,159.6,184.8,158.7,184.8z"
				/>
			<path class="st26" d="M158.7,184.8h-28.1c-1.3,0-2.4,0.6-3.1,1.6H162l-1-0.8C160.4,185.1,159.6,184.8,158.7,184.8z"/>
			<path class="st6" d="M132.3,184.8h-28.1c-1.3,0-2.4,0.6-3.1,1.6l-3.5,4.8c-0.7,1-0.9,2.1-0.6,3.3l13.6,50.1
				c0.2,0.8,0.7,1.5,1.3,2l13.3,10.4c0.7,0.6,1.5,0.8,2.4,0.8h16.8c1.3,0,2.4-0.6,3.1-1.6l7.6-10.4c0.7-1,0.9-2.1,0.6-3.3
				l-13.6-50.1c-0.2-0.8-0.7-1.5-1.3-2l-6.1-4.8C133.9,185.1,133.2,184.8,132.3,184.8z"/>
			<path class="st15" d="M86.7,181.1c-9.7,0-17.6,7.9-17.6,17.6c0,9.7,7.9,17.6,17.6,17.6s17.6-7.9,17.6-17.6
				C104.3,188.9,96.4,181.1,86.7,181.1z"/>
			<path class="st11" d="M103,195H70.2c-1.9,0-3.5,1.6-3.5,3.5l0,0c0,1.9,1.6,3.5,3.5,3.5H103c1.9,0,3.5-1.6,3.5-3.5l0,0
				C106.5,196.5,104.9,195,103,195z"/>
			<path class="st32" d="M160.7,189h-11c-2.2,0-3.4,1.8-2.8,3.9l4.8,17.3c0.5,1.9,2.5,3.5,4.5,3.5h11c2.2,0,3.4-1.8,2.8-3.9
				l-4.8-17.3C164.7,190.6,162.7,189,160.7,189z"/>
			<path class="st6" d="M160.7,189.7h-11c-1.6,0-2.6,1.3-2.1,3l4.8,17.3c0.4,1.6,2.1,3,3.8,3h11c1.6,0,2.6-1.3,2.1-3l-4.8-17.3
				C164,191.1,162.3,189.7,160.7,189.7z"/>
			<path class="st15" d="M161.7,265.7h-17c-0.8,0-1.4,0.3-1.9,1l-2.1,2.9c-0.4,0.6-0.6,1.3-0.4,2l7.9,29h-1.5v9.5h12.2l0,0h4.5h5.7
				c0.8,0,1.4-0.3,1.9-1l4.6-6.3c0.4-0.6,0.6-1.3,0.4-2l-8.3-30.4c-0.1-0.5-0.4-0.9-0.8-1.2l-3.7-2.9
				C162.8,265.9,162.3,265.7,161.7,265.7z"/>
			<path class="st11" d="M161.7,265.7h-17c-0.8,0-1.4,0.3-1.9,1l-2.1,2.9c-0.4,0.6-0.6,1.3-0.4,2l7.9,29h-1.5v1.3H176
				c0.1-0.3,0-0.7-0.1-1l-8.3-30.4c-0.1-0.5-0.4-0.9-0.8-1.2l-3.7-2.9C162.8,265.9,162.3,265.7,161.7,265.7z"/>
			<path class="st31" d="M141.5,275.9l6.7,24.7h-1.5v1.3H176c0.1-0.3,0-0.7-0.1-1l-8.3-30.4c-0.1-0.2-0.2-0.5-0.3-0.7h-25.9v6.1
				H141.5z"/>
			<polygon class="st3" points="174.4,294.8 173.5,291.5 152.4,291.5 152.4,294.8 			"/>
			<path class="st17" d="M141.5,275.9l6,22.2l21.8-21.8l-1.6-5.9c-0.1-0.2-0.2-0.5-0.3-0.7h-25.9V275.9z"/>
			<path class="st6" d="M145.7,265.7h-17c-0.8,0-1.4,0.3-1.9,1l-2.1,2.9c-0.4,0.6-0.6,1.3-0.4,2l8.3,30.4c0.1,0.5,0.4,0.9,0.8,1.2
				l8,6.3c0.4,0.3,0.9,0.5,1.4,0.5H153c0.8,0,1.4-0.3,1.9-1l4.6-6.3c0.4-0.6,0.6-1.3,0.4-2l-8.3-30.4c-0.1-0.5-0.4-0.9-0.8-1.2
				l-3.7-2.9C146.7,265.9,146.2,265.7,145.7,265.7z"/>
			<path class="st23" d="M197.4,296.6h-1.7c0.9,0,1.6,0.3,2.3,0.8l6,4.8c0.7,0.5,1.1,1.2,1.3,2l13.5,49.5c0.3,1.2,0.1,2.3-0.6,3.2
				l-7.5,10.3c-0.7,1-1.8,1.5-3,1.6h1.7c1.3,0,2.3-0.5,3.1-1.6l7.5-10.3c0.7-1,0.9-2.1,0.6-3.2l-13.5-49.5c-0.2-0.8-0.7-1.5-1.3-2
				l-6-4.8C199.1,296.8,198.3,296.6,197.4,296.6z"/>
			<path class="st9" d="M121.7,184.8h-14.8c-0.7,0-1.2,0.3-1.6,0.8l-1.9,2.5c-0.4,0.5-0.5,1.1-0.3,1.7L110,215h-1.3v8.3h10.6l0,0
				h3.9h5c0.7,0,1.3-0.3,1.6-0.8l4-5.5c0.4-0.5,0.5-1.1,0.3-1.7l-7.2-26.5c-0.1-0.4-0.3-0.8-0.7-1.1l-3.2-2.5
				C122.5,185,122.1,184.8,121.7,184.8z"/>
			<path class="st22" d="M121.7,184.8h-14.8c-0.7,0-1.2,0.3-1.6,0.8l-1.9,2.5c-0.4,0.5-0.5,1.1-0.3,1.7L110,215h-1.3v1.3h25.5
				c0.1-0.3,0.1-0.7,0-1.1l-7.2-26.5c-0.1-0.4-0.3-0.8-0.7-1.1l-3.2-2.5C122.5,185,122.1,184.8,121.7,184.8z"/>
			<path class="st13" d="M121.7,184.8h-14.8c-0.7,0-1.2,0.3-1.6,0.8l-1.9,2.5c-0.1,0.1-0.2,0.3-0.2,0.4h23.7
				c-0.1-0.3-0.3-0.6-0.6-0.8l-3.2-2.5C122.5,185,122.1,184.8,121.7,184.8z"/>
			<path class="st6" d="M105.6,184.8H90.8c-0.7,0-1.3,0.3-1.6,0.8l-1.9,2.5c-0.4,0.5-0.5,1.1-0.3,1.7l7.2,26.5
				c0.1,0.4,0.3,0.8,0.7,1.1l7,5.5c0.4,0.3,0.8,0.4,1.3,0.4h8.9c0.7,0,1.3-0.3,1.6-0.8l4-5.5c0.4-0.5,0.5-1.1,0.3-1.7l-7.2-26.5
				c-0.1-0.4-0.3-0.8-0.7-1.1l-3.2-2.5C106.5,185,106.1,184.8,105.6,184.8z"/>
			<path class="st6" d="M111.5,184.8h-1.1c0.5,0,0.9,0.2,1.2,0.4l3.2,2.5c0.4,0.3,0.6,0.6,0.7,1.1l7.2,26.5c0.2,0.6,0.1,1.2-0.3,1.7
				l-4,5.5c-0.4,0.5-1,0.8-1.6,0.8h1.1c0.7,0,1.3-0.3,1.6-0.8l4-5.5c0.4-0.5,0.5-1.1,0.3-1.7l-7.2-26.5c-0.1-0.4-0.3-0.8-0.7-1.1
				l-3.2-2.5C112.4,185,112,184.8,111.5,184.8z"/>
			<g>
				<path class="st18" d="M112.7,245.8c-5,0-9,4-9,9c0,5,4,9,9,9s9-4,9-9C121.7,249.8,117.6,245.8,112.7,245.8z"/>
				<path class="st6" d="M136.4,243.7h-19.1c-6.1,0-11,5-11,11l0,0c0,6.1,5,11,11,11h19.1V243.7z"/>
				<path class="st15" d="M136.4,243.7h-19.1c-4.5,0-8.3,2.7-10,6.5h29.1V243.7z"/>
				<path class="st17" d="M136.4,243.7c-6.1,0-11.1,5-11.1,11.1c0,6.1,5,11.1,11.1,11.1s11.1-5,11.1-11.1S142.5,243.7,136.4,243.7z"
					/>
				<path class="st19" d="M138.1,245.8c-5,0-9,4-9,9c0,5,4,9,9,9s9-4,9-9C147.2,249.8,143.1,245.8,138.1,245.8z"/>
			</g>
			<path class="st33" d="M155.4,191.5c0.7,0,1.3,0.5,1.5,1.2l1.6,5.9h-6.8l-1.6-5.9c-0.2-0.7,0.2-1.2,0.9-1.2H155.4L155.4,191.5z
				 M154.3,205.5c0.1,0,0.2,0.1,0.3,0.1C154.5,205.6,154.4,205.6,154.3,205.5L154.3,205.5z M154.8,205.6h4.5l0,0l0,0H154.8
				c-0.1,0-0.2,0-0.3,0C154.6,205.6,154.7,205.6,154.8,205.6z"/>
			<path class="st13" d="M151.7,198.6l1.6,5.9c0.2,0.7,0.9,1.2,1.5,1.2h4.5c0.7,0,1-0.5,0.9-1.2l-1.6-5.9H151.7z"/>
			<path class="st17" d="M119.4,264.9c-11.1,0-20.1,9-20.1,20.1s9,20.1,20.1,20.1s20.1-9,20.1-20.1S130.5,264.9,119.4,264.9z"/>
			<path class="st15" d="M108.1,301.7c3.2,2.2,7.1,3.5,11.3,3.5c11.1,0,20.1-9,20.1-20.1c0-2-0.3-3.9-0.8-5.7h-30.6V301.7z"/>
			<path class="st6" d="M131.9,300.8c4-3.2,7.1-6.1,7.4-13c-0.6,1.9-2.4,3.4-4.6,3.4c-2.2,0-4.1-1.4-4.7-3.4h-13.3v13.1h15.2V300.8z
				"/>
			<path class="st6" d="M114.1,265.3c-9.2,1.9-16.1,10-16.1,19.7s6.9,17.8,16.1,19.7c9.2-1.9,16.1-10,16.1-19.7
				S123.3,267.2,114.1,265.3z"/>
			<path class="st13" d="M145.2,296.6h-27.7c-1.3,0-2.6,0.5-3.7,1.6l-5.5,4.8c-1.1,1-1.8,2.1-2,3.2l-7.5,47.1h-2.5l-6.7,15.5h19.8
				l0,0h7.3h9.3c1.3,0,2.6-0.5,3.7-1.6l11.9-10.3c1.1-1,1.8-2.1,2-3.2l7.9-49.5c0.1-0.8,0-1.5-0.5-2l-4-4.8
				C146.8,296.8,146.1,296.6,145.2,296.6z"/>
			<path class="st9" d="M94.9,356.3l-5.3,12.4h19.8l0,0h7.3h9.3c1.3,0,2.6-0.5,3.7-1.6l11.9-10.3c0.2-0.2,0.4-0.3,0.6-0.5H94.9z"/>
			<path class="st22" d="M109.1,302.1l-0.9,0.8c-1.1,1-1.8,2.1-2,3.2l-7.5,47.1h-2.5l-1.3,3.1h47.4c0.8-0.8,1.3-1.8,1.4-2.7
				l7.9-49.5c0.1-0.8,0-1.5-0.5-2H109.1z"/>
			<path class="st13" d="M114.3,356.3h28c0.8-0.8,1.3-1.8,1.4-2.7l4.3-27l-36.7,25.5L114.3,356.3z"/>
			<path class="st9" d="M119.1,296.6H91.4c-1.3,0-2.6,0.5-3.7,1.6l-5.5,4.8c-1.1,1-1.8,2.1-2,3.2l-7.9,49.5c-0.1,0.8,0,1.5,0.5,2
				l8.7,10.3c0.5,0.5,1.1,0.8,2,0.8H100c1.3,0,2.6-0.5,3.7-1.6l11.9-10.3c1.1-1,1.8-2.1,2-3.2l7.9-49.5c0.1-0.8,0-1.5-0.5-2l-4-4.8
				C120.6,296.8,120,296.6,119.1,296.6z"/>
			<path class="st13" d="M108.2,306.4H88.3c-0.9,0-1.8,0.4-2.7,1.1l-4,3.4c-0.8,0.7-1.3,1.5-1.4,2.3l-5.7,35.5
				c-0.1,0.6,0,1.1,0.3,1.4l6.2,7.4c0.3,0.4,0.8,0.6,1.4,0.6h11.9c0.9,0,1.8-0.4,2.7-1.1l8.6-7.4c0.8-0.7,1.3-1.5,1.4-2.3l5.7-35.5
				c0.1-0.6,0-1.1-0.3-1.4l-2.9-3.4C109.3,306.6,108.9,306.4,108.2,306.4z"/>
			<path class="st23" d="M125.1,296.6h-2.2c0.9,0,1.5,0.3,2,0.8l4,4.8c0.4,0.5,0.6,1.2,0.5,2l-7.9,49.5c-0.2,1.2-0.9,2.3-2,3.2
				l-11.9,10.3c-1.2,1-2.5,1.5-3.7,1.6h2.2c1.3,0,2.6-0.5,3.7-1.6l11.9-10.3c1.1-1,1.8-2.1,2-3.2l7.9-49.5c0.1-0.8,0-1.5-0.5-2
				l-4-4.8C126.7,296.8,126,296.6,125.1,296.6z"/>
			<g>
				<path class="st6" d="M102.4,307.9H85.3c-0.8,0-1.6,0.3-2.3,1l-3.4,2.9c-0.7,0.6-1.1,1.3-1.2,2l-4.9,30.6c-0.1,0.5,0,0.9,0.3,1.2
					l5.3,6.4c0.3,0.3,0.7,0.5,1.2,0.5h10.3c0.8,0,1.6-0.3,2.3-1l7.4-6.4c0.7-0.6,1.1-1.3,1.2-2l4.9-30.6c0.1-0.5,0-0.9-0.3-1.2
					l-2.5-2.9C103.4,308.1,103,307.9,102.4,307.9z"/>
				<path class="st24" d="M99.1,305.1H82c-0.8,0-1.6,0.3-2.3,1l-3.4,2.9c-0.7,0.6-1.1,1.3-1.2,2l-4.9,30.6c-0.1,0.5,0,0.9,0.3,1.2
					l5.3,6.4c0.3,0.3,0.7,0.5,1.2,0.5h10.3c0.8,0,1.6-0.3,2.3-1l7.4-6.4c0.7-0.6,1.1-1.3,1.2-2l4.9-30.6c0.1-0.5,0-0.9-0.3-1.2
					l-2.5-2.9C100,305.3,99.6,305.1,99.1,305.1z"/>
				<path class="st21" d="M98.9,307.3l2,2.4L96.1,340c0,0.3-0.3,0.6-0.5,0.7l-7.4,6.4c-0.2,0.2-0.6,0.4-0.9,0.4H77.2l-4.9-5.8
					l4.8-30.3c0-0.3,0.3-0.6,0.5-0.7l3.4-2.9c0.2-0.2,0.6-0.4,0.9-0.4h17V307.3z"/>
				<path class="st15" d="M81.9,309.5L81.9,309.5c-0.8,0.3-1.4,1.2-1.2,2l3.6,14.6L75,340.8c-0.5,0.8-0.3,1.7,0.4,2l0,0
					c0.7,0.3,1.7,0,2.1-0.8l7.7-12.1l2.9,12.1c0.2,0.8,1,1.1,1.8,0.8l0,0c0.8-0.3,1.4-1.2,1.2-2l-3.6-14.6l9.3-14.6
					c0.5-0.8,0.3-1.7-0.4-2l0,0c-0.7-0.3-1.7,0-2.1,0.8l-7.7,12.1l-2.9-12.1C83.6,309.5,82.7,309.2,81.9,309.5z"/>
			</g>
			<path class="st6" d="M122.2,250.8h-19.9c-0.9,0-1.8,0.4-2.7,1.1l-4,3.4c-0.8,0.7-1.3,1.5-1.4,2.3l-5.7,35.5
				c-0.1,0.6,0,1.1,0.3,1.4l6.2,7.4c0.3,0.4,0.8,0.6,1.4,0.6h11.9c0.9,0,1.8-0.4,2.7-1.1l8.6-7.4c0.8-0.7,1.3-1.5,1.4-2.3l5.7-35.5
				c0.1-0.6,0-1.1-0.3-1.4l-2.9-3.4C123.3,251,122.8,250.8,122.2,250.8z"/>
			<path class="st17" d="M118.3,250.8H98.4c-0.9,0-1.8,0.4-2.7,1.1l-4,3.4c-0.8,0.7-1.3,1.5-1.4,2.3l-5.7,35.5
				c-0.1,0.6,0,1.1,0.3,1.4l6.2,7.4c0.3,0.4,0.8,0.6,1.4,0.6h11.9c0.9,0,1.8-0.4,2.7-1.1l8.6-7.4c0.8-0.7,1.3-1.5,1.4-2.3l5.7-35.5
				c0.1-0.6,0-1.1-0.3-1.4l-2.9-3.4C119.4,251,118.9,250.8,118.3,250.8z"/>
			<path class="st21" d="M118.3,250.8H98.4c-0.9,0-1.8,0.4-2.7,1.1l-4,3.4c-0.8,0.7-1.3,1.5-1.4,2.3l-5.7,35.5
				c-0.1,0.6,0,1.1,0.3,1.4l4.6,5.4l31.4-31.4l2-12.4c0.1-0.6,0-1-0.3-1.4l-2.9-3.4C119.4,251,118.9,250.8,118.3,250.8z"/>
			<path class="st6" d="M109.4,207.3L109.4,207.3c-2-0.8-4.4,0.2-5.2,2.2L94,234.7c-0.8,2,0.2,4.4,2.2,5.2l0,0
				c2,0.8,4.4-0.2,5.2-2.2l10.2-25.2C112.4,210.5,111.4,208.2,109.4,207.3z"/>
			<path class="st6" d="M91.4,201L91.4,201c-4.8-2-10.4,0.4-12.3,5.2l-4.6,11.3c-2,4.8,0.4,10.4,5.2,12.3l0,0
				c4.8,2,10.4-0.4,12.3-5.2l4.6-11.3C98.6,208.5,96.2,202.9,91.4,201z"/>
			<path class="st9" d="M91.9,240.9L91.9,240.9c-3.1-1.3-6.6,0.3-7.9,3.3l-0.1,0.2c-1.3,3.1,0.3,6.6,3.3,7.9l0,0
				c3.1,1.3,6.6-0.3,7.9-3.3l0.1-0.2C96.5,245.7,95,242.2,91.9,240.9z"/>
			<path class="st13" d="M87,237L87,237c-4-1.6-8.5,0.3-10.2,4.3l-0.1,0.3c-1.6,4,0.3,8.5,4.3,10.2l0,0c4,1.6,8.5-0.3,10.2-4.3
				l0.1-0.3C92.9,243.2,91,238.6,87,237z"/>
			<path class="st9" d="M80.6,236.3L80.6,236.3c-3.1-1.3-6.6,0.3-7.9,3.3l-0.1,0.2c-1.3,3.1,0.3,6.6,3.3,7.9l0,0
				c3.1,1.3,6.6-0.3,7.9-3.3l0.1-0.2C85.2,241.1,83.7,237.6,80.6,236.3z"/>
			<path class="st13" d="M77.7,237.7L77.7,237.7c-1.9-0.8-4.1,0.2-4.9,2.1l-0.1,0.2c-0.8,1.9,0.2,4.1,2.1,4.9l0,0
				c1.9,0.8,4.1-0.2,4.9-2.1l0.1-0.1C80.6,240.7,79.7,238.5,77.7,237.7z"/>
			<path class="st13" d="M103.7,195.9L103.7,195.9c-5.3-2.1-11.3,0.4-13.4,5.7l-10.9,27c-2.1,5.3,0.4,11.3,5.7,13.4l0,0
				c5.3,2.1,11.3-0.4,13.4-5.7l10.9-27C111.5,204.1,108.9,198,103.7,195.9z"/>
			<path class="st9" d="M100.9,203.9L100.9,203.9c-2-0.8-4.4,0.2-5.2,2.2l-10.2,25.2c-0.8,2,0.2,4.4,2.2,5.2l0,0
				c2,0.8,4.4-0.2,5.2-2.2l10.2-25.2C104,207.1,103,204.7,100.9,203.9z"/>
			<path class="st9" d="M99,194L99,194c-4.8-2-10.4,0.4-12.3,5.2l-4.6,11.3c-2,4.8,0.4,10.4,5.2,12.3l0,0c4.8,2,10.4-0.4,12.3-5.2
				l4.6-11.3C106.2,201.5,103.9,196,99,194z"/>
			<path class="st13" d="M91.4,198.6L91.4,198.6c-3.1-1.3-6.7,0.3-7.9,3.3l-2.9,7.2c-1.3,3.1,0.3,6.7,3.3,7.9l0,0
				c3.1,1.3,6.7-0.3,7.9-3.3l2.9-7.2C96,203.4,94.5,199.9,91.4,198.6z"/>
			<path class="st6" d="M87.8,202.7L87.8,202.7c-1.5-0.6-3.2,0.1-3.8,1.6l-1.4,3.5c-0.6,1.5,0.1,3.2,1.6,3.8l0,0
				c1.5,0.6,3.2-0.1,3.8-1.6l1.4-3.5C90.1,205,89.3,203.3,87.8,202.7z"/>
			<path class="st13" d="M87.6,205.4L87.6,205.4c-0.7-0.3-1.5,0.1-1.8,0.8l-0.7,1.6c-0.3,0.7,0.1,1.5,0.8,1.8l0,0
				c0.7,0.3,1.5-0.1,1.8-0.8l0.7-1.6C88.7,206.5,88.3,205.7,87.6,205.4z"/>
			<path class="st8" d="M99,253.8L99,253.8c-1,0.4-1.6,1.4-1.4,2.3l4.2,17.2l-10.9,17.2c-0.6,0.9-0.4,1.9,0.5,2.3l0,0
				c0.8,0.4,2,0,2.5-0.9l9-14.2l3.5,14.2c0.2,0.9,1.2,1.3,2.2,0.9l0,0c1-0.4,1.6-1.4,1.4-2.3l-4.2-17.2l10.9-17.2
				c0.6-0.9,0.4-2-0.5-2.3l0,0c-0.8-0.4-2,0-2.5,0.9l-9,14.2l-3.5-14.2C100.9,253.8,99.9,253.4,99,253.8z"/>
			<path class="st9" d="M99.3,232.7l-6.2-2.5c-1-0.4-2.2,0.1-2.6,1.1l0,0c-0.4,1,0.1,2.2,1.1,2.6l6.2,2.5c1,0.4,2.2-0.1,2.6-1.1l0,0
				C100.8,234.3,100.3,233.1,99.3,232.7z"/>
			<path class="st9" d="M101.6,226.8l-6.2-2.5c-1-0.4-2.2,0.1-2.6,1.1l0,0c-0.4,1,0.1,2.2,1.1,2.6l6.2,2.5c1,0.4,2.2-0.1,2.6-1.1
				l0,0C103.2,228.4,102.7,227.3,101.6,226.8z"/>
			<path class="st9" d="M104,221l-6.2-2.5c-1-0.4-2.2,0.1-2.6,1.1l0,0c-0.4,1,0.1,2.2,1.1,2.6l6.2,2.5c1,0.4,2.2-0.1,2.6-1.1l0,0
				C105.5,222.5,105,221.4,104,221z"/>
			<path class="st9" d="M106.4,215.1l-6.2-2.5c-1-0.4-2.2,0.1-2.6,1.1l0,0c-0.4,1,0.1,2.2,1.1,2.6l6.2,2.5c1,0.4,2.2-0.1,2.6-1.1
				l0,0C107.9,216.7,107.4,215.5,106.4,215.1z"/>
			<path class="st9" d="M108.8,209.2l-6.2-2.5c-1-0.4-2.2,0.1-2.6,1.1l0,0c-0.4,1,0.1,2.2,1.1,2.6l6.2,2.5c1,0.4,2.2-0.1,2.6-1.1
				l0,0C110.3,210.8,109.8,209.6,108.8,209.2z"/>
			<path class="st11" d="M156.4,400L156.4,400c-3.5,0.9-5.6,4.6-4.7,8.1l8.6,32c0.9,3.5,4.6,5.6,8.1,4.7l0,0
				c3.5-0.9,5.6-4.6,4.7-8.1l-8.6-32C163.5,401.2,159.9,399.1,156.4,400z"/>
			<path class="st9" d="M64.2,354.5c-6,0-11.3,7.8-12,17.4c-0.6,9.6,3.7,17.4,9.6,17.4s11.3-7.8,11.9-17.4
				C74.5,362.2,70.2,354.5,64.2,354.5z"/>
			<path class="st13" d="M59.4,361.6c-3.5,0-6.7,4.6-7.1,10.3c-0.4,5.7,2.2,10.3,5.7,10.3s6.7-4.6,7.1-10.3
				C65.4,366.2,62.9,361.6,59.4,361.6z"/>
			<path class="st6" d="M78.4,178h23.1c1,0,1.9,0.5,2.6,1.3l2.9,4c0.6,0.8,0.8,1.7,0.5,2.7l-11.2,41.3c-0.2,0.7-0.5,1.2-1.1,1.7
				l-10.9,8.6c-0.6,0.5-1.2,0.7-2,0.7H68.4c-1,0-1.9-0.5-2.6-1.3l-6.2-8.6c-0.6-0.8-0.8-1.7-0.5-2.7l11.2-41.3
				c0.2-0.7,0.5-1.2,1.1-1.7l5-4C77.1,178.2,77.7,178,78.4,178z"/>
			<path class="st11" d="M100.9,372.8c-4.8-3.1-12.7,0.7-17.6,8.4c-4.9,7.7-5,16.5-0.2,19.5c4.8,3.1,12.7-0.7,17.6-8.4
				C105.6,384.6,105.7,375.9,100.9,372.8z"/>
			<path class="st11" d="M191.3,371.4c-6.1,0-12.8,7.1-15,15.9c-2.1,8.8,1.1,15.9,7.2,15.9c6.1,0,12.8-7.1,15-15.9
				S197.4,371.4,191.3,371.4z"/>
			<path class="st34" d="M192.3,377.7c-4.1,0-8.6,4.8-10.1,10.7c-1.4,5.9,0.7,10.7,4.8,10.7s8.6-4.8,10.1-10.7
				C198.5,382.5,196.4,377.7,192.3,377.7z"/>
			<path class="st34" d="M97.9,378.6c-4.1-0.3-8.9,4.2-10.8,9.9c-1.9,5.8,0,10.7,4.1,11s8.9-4.2,10.8-9.9
				C103.9,383.8,102,378.9,97.9,378.6z"/>
			<path class="st13" d="M84.4,245.4L84.4,245.4c-5.5,1.4-8.9,7-7.5,12.5l7,28.2c1.4,5.5,7,8.9,12.5,7.5l0,0c5.5-1.4,8.9-7,7.5-12.5
				l-7-28.2C95.5,247.5,89.9,244.1,84.4,245.4z"/>
			<path class="st9" d="M84.4,245.4L84.4,245.4c-5.5,1.4-8.9,7-7.5,12.5l7,28.2c0.5,2.2,1.8,4.1,3.4,5.4c0.6,0,1.3-0.1,1.9-0.3l0,0
				c5.5-1.4,8.9-7,7.5-12.5l-7-28.2c-0.5-2.2-1.8-4.1-3.4-5.4C85.7,245.2,85,245.3,84.4,245.4z"/>
			<path class="st9" d="M78.4,252.9L78.4,252.9c-3.5,0.9-5.6,4.4-4.7,7.8l4.4,17.7c0.9,3.5,4.4,5.6,7.8,4.7l0,0
				c3.5-0.9,5.6-4.4,4.7-7.8l-4.4-17.7C85.4,254.2,81.8,252.1,78.4,252.9z"/>
			<path class="st13" d="M83,244.2L83,244.2c-3.8,1-6.1,5-5.1,8.8l3.9,14.6c1,3.8,5,6.1,8.8,5.1l0,0c3.8-1,6.1-5,5.1-8.8l-3.9-14.6
				C90.8,245.5,86.8,243.2,83,244.2z"/>
			<path class="st6" d="M82.2,246.3L82.2,246.3c-1.7,0.5-2.8,2.3-2.3,4l1.8,6.7c0.5,1.7,2.3,2.8,4,2.3l0,0c1.7-0.5,2.8-2.3,2.3-4
				l-1.8-6.7C85.7,246.8,83.9,245.8,82.2,246.3z"/>
			<path class="st9" d="M86.3,260.8L86.3,260.8c-0.9,0.2-1.4,1.1-1.2,2l0.9,3.3c0.2,0.9,1.1,1.4,2,1.2l0,0c0.9-0.2,1.4-1.1,1.2-2
				l-0.9-3.3C88.1,261.1,87.2,260.6,86.3,260.8z"/>
			<path class="st14" d="M94.1,274.7c-5.3,0-9.6,4.3-9.6,9.6c0,5.3,4.3,9.6,9.6,9.6c5.3,0,9.6-4.3,9.6-9.6
				C103.8,279,99.4,274.7,94.1,274.7z"/>
			<path class="st9" d="M95,279.2c-3.9,0-7,3.1-7,7s3.1,7,7,7s7-3.1,7-7C102,282.3,98.9,279.2,95,279.2z"/>
			<path class="st6" d="M94.2,281.4L94.2,281.4c-3.2,0.8-5.2,4.1-4.4,7.4l3,12.3c0.8,3.2,4.1,5.2,7.4,4.4l0,0
				c3.2-0.8,5.2-4.1,4.4-7.4l-3-12.3C100.7,282.6,97.4,280.6,94.2,281.4z"/>
			<path class="st6" d="M181.5,392.9c-0.7-0.5-2.3,0.1-3.4,1.5c-1.2,1.4-1.5,2.9-0.7,3.5c0.7,0.5,2.3-0.1,3.4-1.5
				S182.2,393.5,181.5,392.9z"/>
			<path class="st6" d="M186.8,376.8c-1.1-0.8-2.2,0.2-2.5,2.2s0.4,4.2,1.5,5s2.2-0.2,2.5-2.2C188.5,379.9,187.9,377.6,186.8,376.8z
				"/>
			<path class="st6" d="M85.2,390.8c-0.6-0.7-2.3-0.3-3.6,0.9c-1.4,1.1-2,2.6-1.3,3.3c0.6,0.7,2.3,0.3,3.6-0.9
				C85.2,392.9,85.8,391.4,85.2,390.8z"/>
			<path class="st6" d="M93.2,375.8c-0.9-1-2.2-0.2-2.8,1.7s-0.4,4.2,0.6,5.2c0.9,1,2.2,0.2,2.8-1.7
				C94.4,379.1,94.2,376.8,93.2,375.8z"/>
			<path class="st6" d="M202.3,381c0-1.3-1.5-1.6-3.2-0.7c-1.8,1-3.1,2.9-3.1,4.2c0,1.3,1.5,1.6,3.2,0.6
				C201,384.3,202.4,382.4,202.3,381z"/>
			<path class="st6" d="M107,380.5c0-1.3-1.5-1.6-3.2-0.6c-1.8,1-3.1,2.9-3.1,4.2c0,1.3,1.5,1.6,3.2,0.7
				C105.6,383.7,107,381.8,107,380.5z"/>
			<path class="st6" d="M131.8,192.8h-12.9c-0.6,0-1.1,0.3-1.4,0.7l-1.6,2.2c-0.3,0.4-0.4,1-0.3,1.5l6.3,23.1
				c0.1,0.4,0.3,0.7,0.6,0.9l6.1,4.8c0.3,0.3,0.7,0.4,1.1,0.4h7.7c0.6,0,1.1-0.3,1.4-0.7l3.5-4.8c0.3-0.4,0.4-1,0.3-1.5l-6.3-23.1
				c-0.1-0.4-0.3-0.7-0.6-0.9l-2.8-2.2C132.6,193,132.3,192.8,131.8,192.8z"/>
			<path class="st21" d="M133.1,191.1h-12.9c-0.6,0-1.1,0.3-1.4,0.7l-1.6,2.2c-0.3,0.4-0.4,1-0.3,1.5l6.3,23.1
				c0.1,0.4,0.3,0.7,0.6,0.9l6.1,4.8c0.3,0.3,0.7,0.4,1.1,0.4h7.7c0.6,0,1.1-0.3,1.4-0.7l3.5-4.8c0.3-0.4,0.4-1,0.3-1.5l-6.3-23.1
				c-0.1-0.4-0.3-0.7-0.6-0.9l-2.8-2.2C133.9,191.2,133.6,191.1,133.1,191.1z"/>
			<path class="st17" d="M133.1,191.1h-12.9c-0.6,0-1.1,0.3-1.4,0.7l-1.6,2.2c-0.3,0.4-0.4,1-0.3,1.5l6,22.2h21v-0.1l-6.3-23.1
				c-0.1-0.4-0.3-0.7-0.6-0.9l-2.8-2.2C133.9,191.2,133.6,191.1,133.1,191.1z"/>
			<path class="st35" d="M133.5,194.4h-7.7c-0.3,0-0.6,0.2-0.9,0.4l-1,1.3c-0.2,0.3-0.3,0.6-0.2,0.9l3.7,13.8
				c0.1,0.2,0.2,0.4,0.4,0.6l3.6,2.9c0.2,0.2,0.4,0.2,0.7,0.2h4.6c0.3,0,0.6-0.2,0.9-0.4l2.1-2.9c0.2-0.3,0.3-0.6,0.2-0.9l-3.7-13.8
				c-0.1-0.2-0.2-0.4-0.4-0.6l-1.7-1.3C133.9,194.5,133.7,194.4,133.5,194.4z"/>
			<path class="st6" d="M143.7,199.3L143.7,199.3c-1.2,0.3-1.9,1.6-1.6,2.8l1.2,4.4c0.3,1.2,1.6,1.9,2.8,1.6l0,0
				c1.2-0.3,1.9-1.6,1.6-2.8l-1.2-4.4C146.1,199.7,144.9,199,143.7,199.3z"/>
			<polygon class="st6" points="143.4,200.6 118.5,200.6 120,206.4 144.9,206.4 			"/>
			<path class="st6" d="M117.4,199.8L117.4,199.8c-1.2,0.3-1.9,1.6-1.6,2.8l1.2,4.4c0.3,1.2,1.6,1.9,2.8,1.6l0,0
				c1.2-0.3,1.9-1.6,1.6-2.8l-1.2-4.4C119.8,200.2,118.6,199.5,117.4,199.8z"/>
			<path class="st3" d="M131.1,199.1c0.6,0,1.2,0.2,1.7,0.6c0.5,0.4,0.9,0.9,1,1.5l1.1,4.4c0.2,0.6,0.1,1.1-0.2,1.5
				s-0.8,0.6-1.4,0.6h-3c-0.6,0-1.2-0.2-1.7-0.6c-0.5-0.4-0.9-0.9-1-1.5l-1.1-4.4c-0.2-0.6-0.1-1.1,0.2-1.5c0.3-0.4,0.8-0.6,1.4-0.6
				H131.1L131.1,199.1z M128.1,200.8c-0.1,0.1-0.1,0.3-0.1,0.5l1.1,4.4c0.1,0.2,0.2,0.4,0.3,0.5c0.2,0.1,0.4,0.2,0.6,0.2h3
				c0.2,0,0.4-0.1,0.5-0.2c0.1-0.1,0.1-0.3,0.1-0.5l-1.1-4.4c-0.1-0.2-0.2-0.4-0.3-0.5c-0.2-0.1-0.4-0.2-0.6-0.2h-3
				C128.3,200.6,128.2,200.6,128.1,200.8z"/>
			<path class="st13" d="M202.9,321.3c0.1-0.2,0.2-0.3,0.4-0.5c0.6-0.4,1.4-0.1,1.8,0.5l10.1,14.2c0.2,0.2,0.3,0.5,0.3,0.7
				c0.1,0.7-0.4,1.3-1.1,1.3h-16.5c-0.2,0-0.4-0.1-0.7-0.2c-0.7-0.3-1-1.1-0.7-1.7L202.9,321.3L202.9,321.3z M199.8,334.9h12.1
				l-7.5-10.5l-2.3,5.2L199.8,334.9z"/>
			<path class="st6" d="M215.9,392h-6.7c-0.8,0-1.4,0.6-1.3,1.4l0,0c0.1,0.8,0.8,1.4,1.6,1.4h6.7c0.8,0,1.4-0.6,1.3-1.4l0,0
				C217.4,392.7,216.7,392,215.9,392z"/>
			<path class="st6" d="M138.3,220.6h-6.4c-0.5,0-1,0.4-1,1l0,0c0,0.5,0.4,1,1,1h6.4c0.5,0,1-0.4,1-1l0,0
				C139.3,221.1,138.9,220.6,138.3,220.6z"/>
			<path class="st3" d="M203.7,320.4c0.1-0.2,0.2-0.3,0.4-0.5c0.6-0.4,1.4-0.1,1.8,0.5l10.1,14.2c0.2,0.2,0.3,0.5,0.3,0.7
				c0.1,0.7-0.4,1.3-1.1,1.3h-16.5c-0.2,0-0.4-0.1-0.7-0.2c-0.7-0.3-1-1.1-0.7-1.7L203.7,320.4L203.7,320.4z M200.6,334h12.1
				l-7.5-10.5l-2.3,5.2L200.6,334z"/>
			<path class="st6" d="M208.7,357.5v35.3c0,0.4,0.3,0.7,0.7,0.7h6.6c0.4,0,0.7-0.3,0.7-0.7v-35.4c0-0.1,0-0.1,0-0.2l-5.9-23.7
				c-0.1-0.3-0.4-0.5-0.7-0.5h-6.6c-0.2,0-0.4,0.1-0.6,0.3c-0.1,0.2-0.2,0.4-0.1,0.6L208.7,357.5z"/>
			<path class="st3" d="M208.2,380.6c0-0.6,0.3-1.2,0.7-1.7c0.5-0.4,1.1-0.7,1.8-0.7h5c0.7,0,1.3,0.3,1.8,0.7c0.5,0.4,0.7,1,0.8,1.7
				v3.2c0,0.6-0.3,1.2-0.7,1.7c-0.4,0.4-1.1,0.7-1.8,0.7h-5c-0.7,0-1.3-0.3-1.8-0.7c-0.5-0.4-0.7-1-0.8-1.7V380.6L208.2,380.6z
				 M210.1,384.4c0.2,0.1,0.4,0.2,0.6,0.2h5c0.2,0,0.4-0.1,0.6-0.2c0.1-0.1,0.2-0.3,0.2-0.5v-3.2c0-0.2-0.1-0.4-0.2-0.6
				c-0.1-0.1-0.4-0.2-0.6-0.2h-5c-0.2,0-0.4,0.1-0.6,0.2c-0.1,0.1-0.2,0.3-0.2,0.5v3.2C209.9,384,210,384.2,210.1,384.4z"/>
			<path class="st6" d="M204.3,325l-34.2-7.9c-0.2-0.1-0.5,0-0.6,0.1c-0.2,0.1-0.3,0.3-0.3,0.6l0.1,8.6c0,0.3,0.2,0.6,0.5,0.7
				l31.1,6.4c0.4,0.1,0.7-0.1,0.9-0.4l3.1-7.2c0.1-0.2,0.1-0.4,0-0.6C204.7,325.2,204.5,325.1,204.3,325z"/>
			<path class="st6" d="M218.5,327l-2.1-7.8c-0.1-0.2-0.2-0.4-0.4-0.5s-0.4,0-0.6,0.1l-9.2,6.4c-0.2,0.1-0.3,0.3-0.3,0.4
				c0,0.2,0,0.4,0.1,0.5l5,6.8c0.1,0.2,0.3,0.2,0.5,0.3c0.2,0,0.4,0,0.5-0.2l6.3-5.3C218.5,327.5,218.6,327.3,218.5,327z"/>
			<path class="st6" d="M131.8,251.1c1.1-1.9,2.8-3.1,4.7-3.6s4.1-0.3,5.9,0.8c1.9,1.1,3.1,2.8,3.6,4.7s0.3,4.1-0.8,5.9
				c-1.1,1.9-2.8,3.1-4.7,3.6s-4.1,0.3-5.9-0.8c-1.9-1.1-3.1-2.8-3.6-4.7C130.5,255.1,130.7,253,131.8,251.1L131.8,251.1z
				 M132.7,253.4c-0.3,1-0.3,2.1,0,3.2c0.4,1.5,1.4,2.9,2.9,3.7c1.5,0.8,3.1,1,4.6,0.6c1-0.3,2-0.8,2.7-1.6c-0.1,0-0.1,0-0.2-0.1
				l-9.9-5.7C132.8,253.5,132.7,253.5,132.7,253.4L132.7,253.4z M144.5,253.4c-0.4-1.5-1.4-2.9-2.9-3.7s-3.1-1-4.7-0.6
				c-1,0.3-2,0.8-2.7,1.6c0.1,0,0.1,0,0.2,0.1l9.9,5.7c0.1,0,0.1,0.1,0.2,0.1C144.8,255.5,144.8,254.4,144.5,253.4z"/>
			<path class="st15" d="M148.9,265.7h-0.8c0.5,0,1,0.2,1.4,0.5l3.7,2.9c0.4,0.3,0.7,0.7,0.8,1.2l8.3,30.4c0.2,0.7,0.1,1.4-0.4,2
				l-4.6,6.3c-0.4,0.6-1.1,1-1.9,1h0.8c0.8,0,1.4-0.3,1.9-1l4.6-6.3c0.4-0.6,0.6-1.3,0.4-2l-8.3-30.4c-0.1-0.5-0.4-0.9-0.8-1.2
				l-3.7-2.9C149.9,265.9,149.4,265.7,148.9,265.7z"/>
			<path class="st15" d="M159.1,270.7h-2.5c-0.3,0-0.5,0.2-0.5,0.5l0,0c0,0.3,0.2,0.5,0.5,0.5h2.5c0.3,0,0.5-0.2,0.5-0.5l0,0
				C159.6,270.9,159.3,270.7,159.1,270.7z"/>
			<path class="st15" d="M166.3,298.6h-2.5c-0.3,0-0.5,0.2-0.5,0.5l0,0c0,0.3,0.2,0.5,0.5,0.5h2.5c0.3,0,0.5-0.2,0.5-0.5l0,0
				C166.8,298.8,166.6,298.6,166.3,298.6z"/>
			<path class="st12" d="M164.3,413.5L164.3,413.5c-1.6,0.4-2.6,2.1-2.1,3.7l3.9,14.6c0.4,1.6,2.1,2.6,3.7,2.1l0,0
				c1.6-0.4,2.6-2.1,2.1-3.7l-3.9-14.6C167.5,414,165.9,413.1,164.3,413.5z"/>
			<path class="st6" d="M155.8,406.2L155.8,406.2c-1,0.3-1.6,1.3-1.4,2.4l2.5,9.3c0.3,1,1.3,1.6,2.4,1.4l0,0c1-0.3,1.6-1.3,1.4-2.4
				l-2.5-9.3C157.9,406.6,156.8,406,155.8,406.2z"/>
			<path class="st3" d="M136.7,320.4c0.1-0.2,0.3-0.3,0.5-0.5c0.6-0.4,1.4-0.1,1.7,0.5l7.2,14.2c0.1,0.2,0.2,0.5,0.2,0.7
				c-0.1,0.7-0.7,1.3-1.4,1.3h-16.5c-0.2,0-0.4-0.1-0.6-0.2c-0.6-0.3-0.7-1.1-0.3-1.7L136.7,320.4L136.7,320.4z M130.8,334h12.1
				l-5.3-10.5l-3.4,5.2L130.8,334z"/>
			<polygon class="st6" points="151.3,322 137.7,324.4 141.7,333.3 151.3,330.8 			"/>
			<path class="st3" d="M85.5,329.6c0.1,0.2,0.2,0.3,0.4,0.5c0.6,0.4,1.4,0.1,1.8-0.5l9-14.2c0.2-0.2,0.3-0.5,0.3-0.7
				c0-0.7-0.5-1.3-1.2-1.3H79.3c-0.2,0-0.4,0.1-0.6,0.2c-0.6,0.3-0.9,1.1-0.6,1.7L85.5,329.6L85.5,329.6z M81.3,315.9h12.1
				l-6.7,10.5l-2.7-5.2L81.3,315.9z"/>
			<polygon class="st6" points="91.9,316.7 122.5,322.9 137.5,324.4 132.6,333.3 121.1,331.8 87.3,324.1 			"/>
			<polygon class="st6" points="82.5,316.4 71.5,320.1 71.5,329.6 86.4,324 			"/>
			<polygon class="st6" points="95.5,299.3 91.3,316.4 82.5,316.4 86.3,299.3 			"/>
			<rect x="133.3" y="333.3" class="st6" width="8" height="43.3"/>
			<path class="st6" d="M141,376.2l-6.6-1.5c-0.8-0.2-1.5,0.3-1.6,1.1l0,0c-0.1,0.8,0.5,1.6,1.2,1.8l6.6,1.5
				c0.8,0.2,1.5-0.3,1.6-1.1l0,0C142.3,377.1,141.7,376.4,141,376.2z"/>
			<path class="st3" d="M132.7,359.6c0-0.6,0.3-1.2,0.7-1.7c0.5-0.4,1.1-0.7,1.8-0.7h5c0.7,0,1.3,0.3,1.8,0.7c0.5,0.4,0.7,1,0.8,1.7
				v3.2c0,0.6-0.3,1.2-0.7,1.7c-0.4,0.4-1.1,0.7-1.8,0.7h-5c-0.7,0-1.3-0.3-1.8-0.7c-0.5-0.4-0.7-1-0.8-1.7V359.6L132.7,359.6z
				 M134.7,363.3c0.2,0.1,0.4,0.2,0.6,0.2h5c0.2,0,0.4-0.1,0.6-0.2c0.1-0.1,0.2-0.3,0.2-0.5v-3.2c0-0.2-0.1-0.4-0.2-0.6
				c-0.1-0.1-0.4-0.2-0.6-0.2h-5c-0.2,0-0.4,0.1-0.6,0.2c-0.1,0.1-0.2,0.3-0.2,0.5v3.2C134.4,363,134.5,363.2,134.7,363.3z"/>
			<path class="st12" d="M51.1,408L51.1,408c-1.6-0.2-3.1,1-3.3,2.7l-1.7,15.1c-0.2,1.6,1,3.1,2.7,3.3l0,0c1.6,0.2,3.1-1,3.3-2.7
				l1.7-15.1C54,409.7,52.8,408.2,51.1,408z"/>
			<path class="st6" d="M230.3,260.8c-5.1,0-9.2,4.1-9.2,9.2s4.1,9.2,9.2,9.2c5.1,0,9.2-4.1,9.2-9.2S235.4,260.8,230.3,260.8z"/>
			<path class="st6" d="M235.3,260.6l-3.1-1.8c-2.2-1.3-5.1-0.5-6.4,1.7l0,0c-1.3,2.2-0.5,5.1,1.7,6.4l3.1,1.8
				c2.2,1.3,5.1,0.5,6.4-1.7l0,0C238.4,264.8,237.6,261.9,235.3,260.6z"/>
			<path class="st24" d="M230.9,266.6l-3.1-1.8c-2.2-1.3-5.1-0.5-6.4,1.7l0,0c-1.3,2.2-0.5,5.1,1.7,6.4l3.1,1.8
				c2.2,1.3,5.1,0.5,6.4-1.7l0,0C233.9,270.7,233.1,267.9,230.9,266.6z"/>
			<path class="st6" d="M243.4,266.8l-3.1-1.8c-2.2-1.3-5.1-0.5-6.4,1.7l0,0c-1.3,2.2-0.5,5.1,1.7,6.4l3.1,1.8
				c2.2,1.3,5.1,0.5,6.4-1.7l0,0C246.4,271,245.6,268.1,243.4,266.8z"/>
			<path class="st6" d="M247.7,272.8l-2.4-1.4c-1.7-1-4-0.4-5,1.4l0,0c-1,1.7-0.4,4,1.4,5l2.4,1.4c1.7,1,4,0.4,5-1.4l0,0
				C250,276,249.4,273.8,247.7,272.8z"/>
			<path class="st6" d="M230.2,273.7l-0.3-2.8c-0.2-2-2.1-3.4-4.1-3.2l0,0c-2,0.2-3.4,2.1-3.2,4.1l0.3,2.8c0.2,2,2.1,3.4,4.1,3.2
				l0,0C229,277.6,230.4,275.7,230.2,273.7z"/>
			<path class="st24" d="M231.7,274.4l-2.5-1.3c-1.8-0.9-4-0.2-4.9,1.6l0,0c-0.9,1.8-0.2,4,1.6,4.9l2.5,1.3c1.8,0.9,4,0.2,4.9-1.6
				l0,0C234.2,277.5,233.5,275.3,231.7,274.4z"/>
			<path class="st3" d="M109.5,294.2c-0.6-0.2-1.3-0.3-2-0.1c-0.3-0.9-0.9-1.7-1.7-2.2C107.3,292,108.7,292.9,109.5,294.2
				L109.5,294.2z M108.7,320L108.7,320c2.1-0.6,3.4-2.8,2.8-5l-0.8-2.9c-0.2-0.6-0.4-1.1-0.8-1.5c0.3-0.9,0.3-1.8,0.1-2.8l-0.8-2.8
				c0.3,0,0.7-0.1,1-0.1l0,0c2.1-0.6,3.4-2.8,2.8-5l-0.8-2.9c-0.2-0.8-0.7-1.5-1.3-2c1.7,0.1,3.2,1.2,3.7,2.9l0.8,2.9
				c0.6,2.1-0.7,4.4-2.8,5l0,0c-0.3,0.1-0.7,0.1-1,0.1l0.8,2.8c0.3,0.9,0.2,1.9-0.1,2.8c0.4,0.4,0.6,0.9,0.8,1.5l0.8,2.9
				c0.6,2.1-0.7,4.4-2.8,5l0,0c-1.3,0.4-2.6,0-3.6-0.8C107.8,320.1,108.2,320.1,108.7,320z"/>
			<path class="st26" d="M145.4,167.2h-1.1c-0.2,0-0.4,0.2-0.4,0.4v1.1c0,0.2,0.2,0.4,0.4,0.4h1.1c0.2,0,0.4-0.2,0.4-0.4v-1.1
				C145.8,167.4,145.6,167.2,145.4,167.2z"/>
			<path class="st3" d="M146,168.5L146,168.5c-0.2,0-0.4,0.2-0.4,0.4l0,0c0,0.2,0.2,0.4,0.4,0.4l0,0c0.2,0,0.4-0.2,0.4-0.4l0,0
				C146.4,168.7,146.2,168.5,146,168.5z"/>
			<path class="st3" d="M144.6,166.6L144.6,166.6c-0.4,0-0.7,0.3-0.7,0.7l0,0c0,0.4,0.3,0.7,0.7,0.7l0,0c0.4,0,0.7-0.3,0.7-0.7l0,0
				C145.4,167,145,166.6,144.6,166.6z"/>
			<path class="st26" d="M149.7,175.3H142c-0.2,0-0.3,0.1-0.3,0.3l0,0c0,0.2,0.1,0.3,0.3,0.3h7.7c0.2,0,0.3-0.1,0.3-0.3l0,0
				C150,175.4,149.8,175.3,149.7,175.3z"/>
			<path class="st26" d="M151.4,175.3h-0.6c-0.2,0-0.3,0.1-0.3,0.3l0,0c0,0.2,0.1,0.3,0.3,0.3h0.6c0.2,0,0.3-0.1,0.3-0.3l0,0
				C151.7,175.4,151.6,175.3,151.4,175.3z"/>
			<path class="st26" d="M149.4,178.9h-7.7c-0.2,0-0.3,0.1-0.3,0.3l0,0c0,0.2,0.1,0.3,0.3,0.3h7.7c0.2,0,0.3-0.1,0.3-0.3l0,0
				C149.7,179.1,149.5,178.9,149.4,178.9z"/>
			<path class="st26" d="M151.1,178.9h-0.6c-0.2,0-0.3,0.1-0.3,0.3l0,0c0,0.2,0.1,0.3,0.3,0.3h0.6c0.2,0,0.3-0.1,0.3-0.3l0,0
				C151.4,179.1,151.3,178.9,151.1,178.9z"/>
			<polygon class="st33" points="83.9,197 74.6,197 74,199.2 83.2,199.2 			"/>
			<polygon class="st33" points="82.7,200.4 73.5,200.4 72.8,202.6 82,202.6 			"/>
			<path class="st6" d="M114.3,166.4h-2.5c-0.5,0-1,0.4-1,1l0,0c0,0.5,0.4,1,1,1h2.5c0.5,0,1-0.4,1-1l0,0
				C115.3,166.8,114.8,166.4,114.3,166.4z"/>
			<path class="st6" d="M114.3,169.4h-2.5c-0.5,0-1,0.4-1,1l0,0c0,0.5,0.4,1,1,1h2.5c0.5,0,1-0.4,1-1l0,0
				C115.3,169.8,114.8,169.4,114.3,169.4z"/>
			<path class="st6" d="M114.3,172.4h-2.5c-0.5,0-1,0.4-1,1l0,0c0,0.5,0.4,1,1,1h2.5c0.5,0,1-0.4,1-1l0,0
				C115.3,172.8,114.8,172.4,114.3,172.4z"/>
			<rect x="108.5" y="163.2" class="st6" width="0.8" height="15"/>
			<rect x="109.3" y="163.2" class="st15" width="0.5" height="15"/>
			<rect x="102" y="165" class="st36" width="4.6" height="0.9"/>
			<rect x="105.2" y="166.7" class="st36" width="1.4" height="0.9"/>
			<rect x="104" y="169" class="st3" width="2.5" height="0.9"/>
			<rect x="104" y="170.6" class="st3" width="2.5" height="0.9"/>
			<polygon class="st6" points="89.1,217.4 86,224.2 107.4,226.3 110.5,219.4 			"/>
			<polygon class="st6" points="94.2,196.5 91.1,201.3 112.6,217.5 115.6,212.7 			"/>
			<path class="st3" d="M75.1,174.7h23.1c1,0,1.9,0.5,2.6,1.3l2.9,4c0.6,0.8,0.8,1.7,0.5,2.7L92.9,224c-0.2,0.7-0.5,1.2-1.1,1.7
				l-10.9,8.6c-0.6,0.5-1.2,0.7-2,0.7H65c-1,0-1.9-0.5-2.6-1.3l-6.2-8.6c-0.6-0.8-0.8-1.7-0.5-2.7L67,181c0.2-0.7,0.5-1.2,1.1-1.7
				l5-4C73.7,175,74.3,174.7,75.1,174.7z"/>
			<path class="st10" d="M75.1,174.7h18.5l-3.2,2.2l-15.7,48l0.6,10H65c-1,0-1.9-0.5-2.6-1.3l-6.2-8.6c-0.6-0.8-0.8-1.7-0.5-2.7
				L67,181c0.2-0.7,0.5-1.2,1.1-1.7l5-4C73.7,175,74.3,174.7,75.1,174.7z"/>
			<path class="st6" d="M75.7,227.6h-8.3c-1,0-1.8,0.8-1.8,1.8l0,0c0,1,0.8,1.8,1.8,1.8h8.3c1,0,1.8-0.8,1.8-1.8l0,0
				C77.5,228.4,76.7,227.6,75.7,227.6z"/>
			<path class="st6" d="M164.9,351.2c-7.4,0-13.4,9.6-13.4,21.5s6,21.5,13.4,21.5s13.4-9.6,13.4-21.5
				C178.3,360.8,172.3,351.2,164.9,351.2z"/>
			<polygon class="st6" points="74.8,229.3 69.1,229.3 67.1,256.1 72.8,256.1 			"/>
			<path class="st6" d="M72.7,254.6h-5.8c-0.7,0-1.2,0.6-1.2,1.2l0,0c0,0.7,0.6,1.2,1.3,1.2h5.8c0.7,0,1.2-0.6,1.2-1.2l0,0
				C73.9,255.1,73.3,254.6,72.7,254.6z"/>
			<path class="st3" d="M66.3,246.2c0-0.6,0.3-1.1,0.7-1.4c0.4-0.4,1-0.6,1.6-0.6h4.3c0.6,0,1.1,0.2,1.5,0.6
				c0.4,0.4,0.6,0.9,0.5,1.4l-0.2,2.8c0,0.6-0.3,1.1-0.7,1.4c-0.4,0.4-1,0.6-1.6,0.6h-4.3c-0.6,0-1.1-0.2-1.5-0.6
				c-0.4-0.4-0.6-0.9-0.5-1.4L66.3,246.2L66.3,246.2z M67.8,249.5c0.1,0.1,0.3,0.2,0.5,0.2h4.3c0.2,0,0.4-0.1,0.5-0.2
				c0.1-0.1,0.2-0.3,0.2-0.5l0.2-2.8c0-0.2-0.1-0.4-0.2-0.5s-0.3-0.2-0.5-0.2h-4.3c-0.2,0-0.4,0.1-0.5,0.2c-0.1,0.1-0.2,0.3-0.2,0.5
				l-0.2,2.8C67.6,249.2,67.7,249.4,67.8,249.5z"/>
			<ellipse class="st9" cx="164.9" cy="372.7" rx="10.3" ry="16.6"/>
			<path class="st13" d="M160.7,362.9c-3.4,0-6.1,4.4-6.1,9.8s2.7,9.8,6.1,9.8c3.4,0,6.1-4.4,6.1-9.8S164.1,362.9,160.7,362.9z"/>
			<path class="st6" d="M175.2,363.3l1.1-1.7c0,0,2.4,7.9,9,7.1l-4.8,5.3l-2.9-2.5L175.2,363.3z"/>
			<path class="st6" d="M161.2,379.9c-1.7,0-3,2.2-3,4.8c0,2.7,1.3,4.8,3,4.8s3-2.2,3-4.8S162.8,379.9,161.2,379.9z"/>
			<path class="st9" d="M160.7,383.7c-0.8,0-1.4,1-1.4,2.3s0.6,2.3,1.4,2.3c0.8,0,1.4-1,1.4-2.3
				C162.1,384.7,161.5,383.7,160.7,383.7z"/>
			<path class="st6" d="M60.1,381.2c-1.7,0-2.8,2.3-2.4,5c0.4,2.8,2.2,5,3.9,5s2.8-2.3,2.4-5S61.9,381.2,60.1,381.2z"/>
			<path class="st9" d="M60.2,385.2c-0.8,0-1.3,1.1-1.1,2.4s1,2.4,1.8,2.4s1.3-1.1,1.1-2.4C61.9,386.3,61.1,385.2,60.2,385.2z"/>
			<path class="st6" d="M46.5,239.9L46.5,239.9c-9.2,0-16.8,7.5-16.8,16.8V276c0,9.2,7.5,16.8,16.8,16.8l0,0
				c9.2,0,16.8-7.5,16.8-16.8v-19.3C63.3,247.4,55.8,239.9,46.5,239.9z"/>
			<path class="st8" d="M42.4,246.4L42.4,246.4c-6.7,0-12.2,5.5-12.2,12.2v11.3c0,6.7,5.5,12.2,12.2,12.2l0,0
				c6.7,0,12.2-5.5,12.2-12.2v-11.3C54.6,251.8,49.1,246.4,42.4,246.4z"/>
			<path class="st6" d="M48.3,255.2h-13c-1.5,0-2.7,1.2-2.7,2.7l0,0c0,1.5,1.2,2.7,2.7,2.7h13c1.5,0,2.7-1.2,2.7-2.7l0,0
				C50.9,256.4,49.7,255.2,48.3,255.2z"/>
			<path class="st6" d="M40,196.1L40,196.1c-7.6,0-14,6.2-14.4,13.7l-0.7,15.9c-0.3,7.6,5.6,13.7,13.1,13.7l0,0
				c7.6,0,14-6.2,14.4-13.7l0.7-15.9C53.5,202.3,47.6,196.1,40,196.1z"/>
			<path class="st8" d="M34.7,201.4L34.7,201.4c-5.5,0-10.5,4.5-11.2,10l-1.2,9.3c-0.7,5.5,3.2,10,8.7,10l0,0
				c5.5,0,10.5-4.5,11.2-10l1.2-9.3C44.1,205.9,40.2,201.4,34.7,201.4z"/>
			<path class="st6" d="M39.5,208.6H28.8c-1.2,0-2.2,1-2.2,2.2l0,0c0,1.2,1,2.2,2.2,2.2h10.7c1.2,0,2.2-1,2.2-2.2l0,0
				C41.7,209.6,40.7,208.6,39.5,208.6z"/>
			<path class="st6" d="M179.5,227h-32.7c-1,0-1.6,0.8-1.3,1.8l2,8c0.2,1,1.2,1.8,2.2,1.8h32.7c1,0,1.6-0.8,1.3-1.8l-2-8
				C181.4,227.8,180.4,227,179.5,227z"/>
			<path class="st6" d="M172.5,225.3h-16.3c-1.3,0-2.1,1.1-1.7,2.3l2.7,10.6c0.3,1.3,1.7,2.3,2.9,2.3h16.3c1.3,0,2.1-1.1,1.7-2.3
				l-2.7-10.6C175.1,226.4,173.8,225.3,172.5,225.3z"/>
			<path class="st30" d="M173.9,223.8h-16.3c-1.3,0-2.1,1.1-1.7,2.3l2.7,10.6c0.3,1.3,1.7,2.3,2.9,2.3h16.3c1.3,0,2.1-1.1,1.7-2.3
				l-2.7-10.6C176.5,224.9,175.2,223.8,173.9,223.8z"/>
			<path class="st37" d="M173.9,223.8h-0.7l-14,14.1c0.6,0.7,1.5,1.2,2.3,1.2h4.9l10.8-11l-0.5-2
				C176.5,224.9,175.2,223.8,173.9,223.8z"/>
			<polygon class="st6" points="168.8,223.8 167.1,223.8 175,239.2 176.7,239.2 			"/>
			<polygon class="st6" points="165.4,223.8 167.1,223.8 163.5,239.2 161.8,239.2 			"/>
			<polygon class="st6" points="175.6,240.6 173.9,240.6 175,239.2 176.7,239.2 			"/>
			<g>
				<path class="st3" d="M152.2,219.6c-0.2,0-0.5,0-0.8-0.1s-0.6-0.2-0.8-0.4l0.4-0.7c0.2,0.1,0.3,0.2,0.5,0.3s0.3,0.1,0.5,0.1
					s0.3,0,0.3-0.1c0.1,0,0.1-0.1,0-0.2c0,0,0-0.1-0.1-0.1l-0.1-0.1c-0.1,0-0.1-0.1-0.2-0.1c-0.1,0-0.2-0.1-0.2-0.1l-0.5-0.2
					c-0.1,0-0.2-0.1-0.3-0.2c-0.1-0.1-0.2-0.1-0.3-0.2c-0.1-0.1-0.2-0.2-0.3-0.3s-0.1-0.2-0.2-0.4c0-0.2-0.1-0.3,0-0.5
					c0-0.1,0.1-0.3,0.2-0.4c0.1-0.1,0.2-0.2,0.4-0.3s0.3-0.1,0.6-0.1c0.2,0,0.5,0,0.7,0.1c0.3,0.1,0.5,0.2,0.7,0.4l-0.3,0.6
					c-0.2-0.1-0.3-0.2-0.4-0.2c-0.1,0-0.3-0.1-0.4-0.1c-0.1,0-0.2,0-0.3,0.1c-0.1,0-0.1,0.1-0.1,0.2c0,0.1,0.1,0.2,0.2,0.2
					c0.1,0,0.3,0.1,0.5,0.2l0.5,0.2c0.3,0.1,0.5,0.2,0.7,0.4s0.3,0.4,0.4,0.7c0,0.2,0.1,0.3,0,0.5c0,0.2-0.1,0.3-0.2,0.4
					c-0.1,0.1-0.2,0.2-0.4,0.3C152.6,219.5,152.4,219.6,152.2,219.6z"/>
				<path class="st3" d="M152.9,215.6h2.5l0.2,0.9h-1.5l0.2,0.6h1.3l0.2,0.9h-1.3l0.2,0.7h1.5l0.2,0.9H154L152.9,215.6z"/>
				<path class="st3" d="M156,215.6h1l1.3,1.7l0.6,0.9l0,0c0-0.1-0.1-0.2-0.1-0.3c-0.1-0.1-0.1-0.2-0.1-0.4c0-0.1-0.1-0.3-0.1-0.4
					c0-0.1-0.1-0.3-0.1-0.4l-0.3-1.1h1l1.1,3.9h-1l-1.3-1.7l-0.6-0.9l0,0c0.1,0.2,0.2,0.5,0.3,0.7c0.1,0.3,0.2,0.5,0.3,0.7l0.3,1.1
					h-1L156,215.6z"/>
				<path class="st3" d="M160.7,216.5h-1l-0.2-0.9h3.1l0.2,0.9h-1l0.9,3h-1L160.7,216.5z"/>
				<path class="st3" d="M162.9,215.6h1l1.1,3.9h-1L162.9,215.6z"/>
				<path class="st3" d="M164.5,215.6h1l1.3,1.7l0.6,0.9l0,0c0-0.1-0.1-0.2-0.1-0.3c-0.1-0.1-0.1-0.2-0.1-0.4c0-0.1-0.1-0.3-0.1-0.4
					c0-0.1-0.1-0.3-0.1-0.4l-0.3-1.1h1l1.1,3.9h-1l-1.3-1.7l-0.6-0.9l0,0c0.1,0.2,0.2,0.5,0.3,0.7c0.1,0.3,0.2,0.5,0.3,0.7l0.3,1.1
					h-1L164.5,215.6z"/>
				<path class="st3" d="M168.2,215.6h2.5l0.2,0.9h-1.5l0.2,0.6h1.3l0.2,0.9h-1.3l0.2,0.7h1.5l0.2,0.9h-2.5L168.2,215.6z"/>
				<path class="st3" d="M171.3,215.6h1l0.9,3h1.5l0.2,0.9h-2.5L171.3,215.6z"/>
			</g>
			<polygon class="st6" points="161.1,240.6 162.8,240.6 163.5,239.2 161.8,239.2 			"/>
			<path class="st6" d="M48.3,257.9L48.3,257.9c-0.7,0-1.2,0.5-1.2,1.2v14.4c0,0.7,0.5,1.2,1.2,1.2l0,0c0.7,0,1.2-0.5,1.2-1.2v-14.4
				C49.5,258.4,48.9,257.9,48.3,257.9z"/>
			<path class="st6" d="M48.4,292.2c1.8,0.2,3.5,1.1,4.7,2.4s1.9,3.1,1.9,4.9s-0.7,3.4-1.9,4.5s-2.9,1.7-4.7,1.5s-3.5-1.1-4.7-2.4
				s-1.9-3-1.9-4.9c0-1.8,0.7-3.4,1.9-4.5S46.6,292,48.4,292.2L48.4,292.2z M43.2,298.3c0,1.4,0.6,2.8,1.5,3.8s2.3,1.8,3.7,1.9
				s2.8-0.3,3.7-1.2c0.9-0.9,1.5-2.1,1.5-3.5s-0.6-2.8-1.5-3.9c-0.9-1-2.3-1.8-3.7-1.9s-2.8,0.3-3.7,1.2S43.2,296.9,43.2,298.3z"/>
			<path class="st17" d="M49.9,271.7l-3.1-0.3c-0.9-0.1-1.6,0.6-1.6,1.4v20.8c0,0.9,0.7,1.7,1.6,1.7l3.1,0.3
				c0.9,0.1,1.6-0.6,1.6-1.4v-20.8C51.4,272.6,50.7,271.8,49.9,271.7z"/>
			<path class="st3" d="M48.3,277.3L48.3,277.3c-0.5-0.1-0.9,0.3-0.9,0.8v5.2c0,0.5,0.4,1,0.9,1l0,0c0.5,0.1,0.9-0.3,0.9-0.8v-5.2
				C49.2,277.9,48.8,277.4,48.3,277.3z"/>
			<path class="st3" d="M48.3,285.8L48.3,285.8c-0.5-0.1-0.9,0.3-0.9,0.8v2.3c0,0.5,0.4,1,0.9,1l0,0c0.5,0.1,0.9-0.3,0.9-0.8v-2.3
				C49.2,286.3,48.8,285.9,48.3,285.8z"/>
			<path class="st6" d="M49.3,302.5l-2.1-0.2c-0.6-0.1-1.1,0.4-1.1,1V319c0,0.6,0.5,1.1,1.1,1.2l2.1,0.2c0.6,0.1,1.1-0.4,1.1-1
				v-15.8C50.4,303.1,49.9,302.5,49.3,302.5z"/>
			<path class="st6" d="M30.9,210.5L30.9,210.5c-0.7,0-1.2,0.5-1.2,1.2v10c0,0.7,0.5,1.2,1.2,1.2l0,0c0.7,0,1.2-0.5,1.2-1.2v-10
				C32.1,211,31.5,210.5,30.9,210.5z"/>
			<path class="st17" d="M30.9,216.3L30.9,216.3c-1,0-1.8,0.8-1.8,1.8v4.2c0,1,0.8,1.8,1.8,1.8l0,0c1,0,1.8-0.8,1.8-1.8v-4.2
				C32.6,217.1,31.8,216.3,30.9,216.3z"/>
			<rect x="31.6" y="283.1" class="st6" width="8" height="43.3"/>
			<path class="st6" d="M39.3,326l-6.6-1.5c-0.8-0.2-1.5,0.3-1.6,1.1l0,0c-0.1,0.8,0.5,1.6,1.2,1.8l6.6,1.5c0.8,0.2,1.5-0.3,1.6-1.1
				l0,0C40.7,327,40.1,326.2,39.3,326z"/>
			<path class="st3" d="M31.1,309.4c0-0.6,0.3-1.2,0.7-1.7c0.5-0.4,1.1-0.7,1.8-0.7h5c0.7,0,1.3,0.3,1.8,0.7c0.5,0.4,0.7,1,0.8,1.7
				v3.2c0,0.6-0.3,1.2-0.7,1.7c-0.5,0.4-1.1,0.7-1.8,0.7h-5c-0.7,0-1.3-0.3-1.8-0.7c-0.5-0.4-0.7-1-0.8-1.7L31.1,309.4L31.1,309.4z
				 M33,313.2c0.2,0.1,0.4,0.2,0.6,0.2h5c0.2,0,0.4-0.1,0.6-0.2c0.1-0.1,0.2-0.3,0.2-0.5v-3.2c0-0.2-0.1-0.4-0.2-0.6
				c-0.1-0.1-0.4-0.2-0.6-0.2h-5c-0.2,0-0.4,0.1-0.6,0.2c-0.1,0.1-0.2,0.3-0.2,0.5v3.2C32.8,312.8,32.9,313,33,313.2z"/>
			<g>
				<path class="st6" d="M105.4,294.9c-3.6-3.6-9.4-3.5-13,0.1s-3.5,9.4,0.1,13s9.4,3.5,13-0.1S109,298.5,105.4,294.9z"/>
				<path class="st6" d="M109.1,298.3l-1-3.4c-0.7-2.5-3.3-4-5.8-3.3l0,0c-2.5,0.7-4,3.3-3.3,5.8l1,3.4c0.7,2.5,3.3,4,5.8,3.3l0,0
					C108.3,303.4,109.8,300.8,109.1,298.3z"/>
				<path class="st6" d="M110.5,308.4l-1-3.4c-0.7-2.5-3.3-3.9-5.7-3.2l0,0c-2.5,0.7-3.9,3.3-3.2,5.7l1,3.4c0.7,2.5,3.3,3.9,5.7,3.2
					l0,0C109.7,313.4,111.2,310.8,110.5,308.4z"/>
				<path class="st6" d="M112,315.5l-0.8-2.9c-0.6-2.1-2.8-3.4-5-2.8l0,0c-2.1,0.6-3.4,2.8-2.8,5l0.8,2.9c0.6,2.1,2.8,3.4,5,2.8l0,0
					C111.3,319.9,112.6,317.7,112,315.5z"/>
				<path class="st6" d="M103.8,311.3l-0.8-2.9c-0.6-2.1-2.8-3.4-5-2.8l0,0c-2.1,0.6-3.4,2.8-2.8,5l0.8,2.9c0.6,2.1,2.8,3.4,5,2.8
					l0,0C103.1,315.7,104.4,313.4,103.8,311.3z"/>
				<path class="st6" d="M113.5,300.4l-0.8-2.9c-0.6-2.1-2.8-3.4-5-2.8l0,0c-2.1,0.6-3.4,2.8-2.8,5l0.8,2.9c0.6,2.1,2.8,3.4,5,2.8
					l0,0C112.8,304.8,114.1,302.5,113.5,300.4z"/>
				<path class="st24" d="M101.3,301.3l-1-3.4c-0.7-2.5-3.3-3.9-5.7-3.2l0,0c-2.5,0.7-3.9,3.3-3.2,5.7l1,3.4
					c0.7,2.5,3.3,3.9,5.7,3.2l0,0C100.5,306.3,102,303.8,101.3,301.3z"/>
			</g>
			<path class="st26" d="M165.3,204.2h-3.4c-0.3,0-0.4,0.2-0.4,0.5l0,0c0.1,0.3,0.4,0.5,0.6,0.5h3.4c0.3,0,0.4-0.2,0.4-0.5l0,0
				C165.9,204.4,165.6,204.2,165.3,204.2z"/>
			<path class="st26" d="M164.4,200.6H161c-0.3,0-0.4,0.2-0.4,0.5l0,0c0.1,0.3,0.4,0.5,0.6,0.5h3.4c0.3,0,0.4-0.2,0.4-0.5l0,0
				C165,200.8,164.7,200.6,164.4,200.6z"/>
			<path class="st26" d="M163.9,198.8h-1.2c-0.3,0-0.4,0.2-0.4,0.5l0,0c0.1,0.3,0.4,0.5,0.6,0.5h1.2c0.3,0,0.4-0.2,0.4-0.5l0,0
				C164.5,199,164.2,198.8,163.9,198.8z"/>
			<path class="st3" d="M162.3,192.6h-1.2c-0.3,0-0.4,0.2-0.4,0.5l0,0c0.1,0.3,0.4,0.5,0.6,0.5h1.2c0.3,0,0.4-0.2,0.4-0.5l0,0
				C162.9,192.8,162.6,192.6,162.3,192.6z"/>
			<path class="st3" d="M93.3,240.1L93.3,240.1c-0.1,0-0.2-0.1-0.3-0.1c1.9,1.8,2.5,4.6,1.5,7.1l-0.1,0.3l-0.1,0.2
				c0.9,1.2,1.5,2.5,1.9,4l7.5,30.3c0.7,2.9,0.2,5.9-1.3,8.3c2.5-2.5,3.7-6.2,2.8-9.8l-7-28.2c-0.3-1.4-1-2.7-1.8-3.7l0.1-0.2
				l0.1-0.2C97.9,244.9,96.4,241.3,93.3,240.1z"/>
			<path class="st3" d="M70.7,170.8c-0.3,0-0.6,0-0.9,0.1s-0.5,0.2-0.8,0.4l-4.9,4c-0.2,0.2-0.4,0.4-0.6,0.6
				c-0.1,0.2-0.2,0.5-0.3,0.8L54,218c-0.1,0.4-0.1,0.8,0,1.2s0.3,0.8,0.5,1.1l6.6,8.6c0.3,0.4,0.6,0.7,1,0.9s0.8,0.3,1.3,0.3h13.9
				c0.3,0,0.6,0,0.9-0.1s0.5-0.2,0.8-0.4l10.5-8.6c0.2-0.2,0.4-0.4,0.6-0.6c0.1-0.2,0.2-0.5,0.3-0.8l9.3-41.3c0.1-0.4,0.1-0.8,0-1.2
				s-0.3-0.8-0.5-1.1l-3.1-4c-0.3-0.4-0.6-0.7-1-0.9s-0.8-0.3-1.3-0.3L70.7,170.8L70.7,170.8z M95.4,170.4c0.5,0.2,0.9,0.6,1.3,1.1
				l3.1,4c0.3,0.4,0.6,0.9,0.7,1.4s0.1,1,0,1.6l-9.3,41.3c-0.1,0.4-0.2,0.7-0.4,1c-0.2,0.3-0.4,0.6-0.7,0.8l-10.5,8.6
				c-0.3,0.3-0.7,0.5-1,0.6c-0.4,0.1-0.8,0.2-1.2,0.2h-14c-0.6,0-1.1-0.1-1.6-0.4c-0.5-0.2-0.9-0.6-1.3-1.1l-6.6-8.6
				c-0.3-0.4-0.6-0.9-0.7-1.5c-0.1-0.5-0.1-1,0-1.6l9.3-41.3c0.1-0.4,0.2-0.7,0.4-1s0.4-0.6,0.7-0.8l4.9-4c0.3-0.3,0.7-0.5,1-0.6
				c0.4-0.1,0.8-0.2,1.2-0.2h23.1C94.4,170,94.9,170.1,95.4,170.4z"/>
			<path class="st3" d="M166.1,182.8c0.5,0,1,0.1,1.4,0.2c0.4,0.2,0.9,0.4,1.2,0.7l6.1,4.8c0.4,0.3,0.7,0.6,0.9,1s0.4,0.8,0.6,1.2
				l12.8,47h-46.5L130.4,193c-0.2-0.6-0.2-1.3-0.1-1.9c0.1-0.6,0.4-1.2,0.8-1.7l3.5-4.8c0.4-0.6,0.9-1,1.5-1.3s1.2-0.5,1.9-0.5
				H166.1L166.1,182.8z M136.4,184c-0.5,0.2-0.9,0.6-1.2,1.1l-3.5,4.8c-0.3,0.4-0.5,0.9-0.6,1.4s-0.1,1,0.1,1.5l12,44.1H188
				L175.5,191c-0.1-0.4-0.2-0.7-0.4-1s-0.4-0.6-0.7-0.8l-6.1-4.8c-0.3-0.3-0.6-0.4-1-0.6c-0.3-0.1-0.7-0.2-1.1-0.2H138
				C137.4,183.7,136.9,183.8,136.4,184z"/>
			<path class="st6" d="M48.7,176.8L48.7,176.8c-4.3,0-8.2,3.5-8.7,7.7l-1.1,8.9c-0.5,4.3,2.6,7.7,6.8,7.7l0,0
				c4.3,0,8.2-3.5,8.7-7.7l1.1-8.9C56.1,180.3,53,176.8,48.7,176.8z"/>
			<path class="st8" d="M45.5,179.8L45.5,179.8c-3.1,0-6.1,2.5-6.7,5.6l-1,5.2c-0.6,3.1,1.4,5.6,4.5,5.6l0,0c3.1,0,6.1-2.5,6.7-5.6
				l1-5.2C50.6,182.4,48.6,179.8,45.5,179.8z"/>
			<path class="st6" d="M42.9,182.7L42.9,182.7c-1,0-1.9,0.8-2.1,1.8l-0.3,1.7c-0.2,1,0.5,1.8,1.4,1.8l0,0c1,0,1.9-0.8,2.1-1.8
				l0.3-1.7C44.5,183.5,43.8,182.7,42.9,182.7z"/>
			<path class="st38" d="M83.2,250.3L83.2,250.3c-0.7,0.2-1,0.9-0.9,1.5l0.7,2.5c0.2,0.7,0.9,1,1.5,0.9l0,0c0.7-0.2,1-0.9,0.9-1.5
				l-0.7-2.5C84.6,250.5,83.9,250.1,83.2,250.3z"/>
			<path class="st6" d="M67.2,369c1,1.4,3.4,1.1,5.5-0.9c2.1-1.9,3-4.6,2-6s-3.4-1.1-5.5,0.9C67.1,364.8,66.2,367.5,67.2,369z"/>
			<path class="st9" d="M70.5,366.7c0.5,0.7,1.6,0.5,2.6-0.4s1.4-2.2,0.9-2.9c-0.5-0.7-1.6-0.5-2.6,0.4S70,366,70.5,366.7z"/>
			<path class="st6" d="M166.4,367.6c1,1.4,3.4,1.1,5.5-0.9c2.1-1.9,3-4.6,2-6s-3.4-1.1-5.5,0.9
				C166.3,363.4,165.4,366.1,166.4,367.6z"/>
			<path class="st9" d="M169.7,365.2c0.5,0.7,1.6,0.5,2.6-0.4s1.4-2.2,0.9-2.9c-0.5-0.7-1.6-0.5-2.6,0.4
				C169.6,363.3,169.2,364.6,169.7,365.2z"/>
			<path class="st6" d="M135.1,283.3L135.1,283.3c-0.7,0-1.3,0.6-1.3,1.3v2.9c0,0.7,0.6,1.3,1.3,1.3l0,0c0.7,0,1.3-0.6,1.3-1.3v-2.9
				C136.4,283.8,135.8,283.3,135.1,283.3z"/>
			<path class="st6" d="M192.9,283.3L192.9,283.3c-0.7,0-1.3,0.6-1.3,1.3v2.9c0,0.7,0.6,1.3,1.3,1.3l0,0c0.7,0,1.3-0.6,1.3-1.3v-2.9
				C194.2,283.8,193.6,283.3,192.9,283.3z"/>
			<path class="st6" d="M190.1,358.9c0.7,1,2.4,0.7,3.9-0.6c1.5-1.4,2.1-3.3,1.4-4.3c-0.7-1-2.4-0.7-3.9,0.6
				C190.1,355.9,189.5,357.9,190.1,358.9z"/>
			<path class="st9" d="M192.5,357.2c0.3,0.5,1.2,0.4,1.9-0.3c0.7-0.6,1-1.6,0.7-2c-0.3-0.5-1.2-0.4-1.9,0.3
				C192.4,355.9,192.1,356.8,192.5,357.2z"/>
			<path class="st6" d="M180.5,318.4c0.7,1,2.4,0.7,3.9-0.6c1.5-1.4,2.1-3.3,1.4-4.3c-0.7-1-2.4-0.7-3.9,0.6
				C180.5,315.5,179.8,317.4,180.5,318.4z"/>
			<path class="st9" d="M182.8,316.8c0.3,0.5,1.2,0.4,1.9-0.3c0.7-0.6,1-1.6,0.7-2c-0.3-0.5-1.2-0.4-1.9,0.3
				C182.8,315.4,182.5,316.3,182.8,316.8z"/>
			<path class="st14" d="M204.7,247.5L204.7,247.5c0.6-1.1,0.2-2.4-0.8-3l-4-2.3c-1.1-0.6-2.4-0.2-3,0.8l0,0c-0.6,1.1-0.2,2.4,0.8,3
				l4,2.3C202.7,248.9,204.1,248.6,204.7,247.5z"/>
			<path class="st14" d="M210.8,250.8L210.8,250.8c0.4-0.6,0.1-1.4-0.5-1.8l-2.4-1.4c-0.6-0.4-1.4-0.1-1.8,0.5l0,0
				c-0.4,0.6-0.1,1.4,0.5,1.8l2.4,1.4C209.7,251.6,210.5,251.4,210.8,250.8z"/>
			<path class="st6" d="M135.6,184.8h-0.9c0.9,0,1.6,0.3,2.3,0.8l6.1,4.8c0.7,0.5,1.1,1.2,1.3,2l13.6,50.1c0.3,1.2,0.1,2.3-0.6,3.3
				l-7.6,10.4c-0.7,1-1.8,1.6-3.1,1.6h0.8c1.3,0,2.4-0.6,3.1-1.6l7.6-10.4c0.7-1,0.9-2.1,0.6-3.3l-13.6-50.1c-0.2-0.8-0.7-1.5-1.3-2
				l-6.1-4.8C137.3,185.1,136.5,184.8,135.6,184.8z"/>
			<g>
				<g id="_x33_74b63ee-0cdc-4a92-9b9f-3e3c0f994291_1_">
					<path class="st33" d="M72.4,205.2h-2.6l-1.2,2.3h-2l5.3-9.8h2.3v9.8h-2L72.4,205.2z M72.5,203.4v-0.9c0-0.5,0-1,0.1-1.6
						c0-0.6,0.1-1.1,0.1-1.6h-0.1c-0.2,0.5-0.5,1.1-0.8,1.6s-0.5,1.1-0.8,1.6l-0.5,0.9H72.5z"/>
					<path class="st33" d="M78.2,197.7h2.9c0.4,0,0.8,0,1.2,0.1c0.3,0.1,0.6,0.2,0.9,0.4c0.2,0.2,0.4,0.5,0.5,0.8s0.1,0.7-0.1,1.2
						c-0.1,0.2-0.1,0.4-0.3,0.7c-0.1,0.2-0.3,0.4-0.4,0.6c-0.2,0.2-0.4,0.4-0.6,0.5c-0.2,0.2-0.5,0.3-0.7,0.3v0.1
						c0.6,0.1,1,0.4,1.2,0.8c0.2,0.4,0.2,0.9,0,1.6c-0.1,0.5-0.3,0.9-0.6,1.3c-0.3,0.4-0.6,0.7-1,0.9s-0.8,0.4-1.2,0.5
						c-0.5,0.1-0.9,0.2-1.3,0.2h-3.2L78.2,197.7z M80,201.6c0.5,0,0.8-0.1,1.1-0.3s0.5-0.5,0.6-0.9s0.1-0.6-0.1-0.8
						s-0.5-0.2-0.9-0.2h-0.9l-0.6,2.2H80z M79.1,205.8c1.1,0,1.7-0.4,1.9-1.3c0.1-0.4,0.1-0.7-0.1-0.9s-0.6-0.3-1.1-0.3h-1.1
						l-0.7,2.6h1.1V205.8z"/>
					<path class="st33" d="M86,197.7h3.1c0.4,0,0.9,0.1,1.3,0.2c0.4,0.1,0.7,0.3,0.9,0.5c0.2,0.3,0.4,0.6,0.5,1s0,0.9-0.1,1.5
						c-0.2,0.6-0.4,1.1-0.7,1.5c-0.3,0.4-0.6,0.8-1,1c-0.4,0.3-0.8,0.5-1.2,0.6c-0.5,0.1-0.9,0.2-1.3,0.2h-1.2l-0.9,3.3h-1.9
						L86,197.7z M87.8,202.4c1,0,1.7-0.5,2-1.6c0.1-0.5,0.1-0.9-0.1-1.1c-0.2-0.2-0.6-0.3-1.1-0.3h-1.1l-0.8,3L87.8,202.4
						L87.8,202.4z"/>
				</g>
				<path class="st33" d="M87.7,190.8l5.1,7l-2.6,9.9l-8.9,7h-9.9l-5.1-7l2.6-9.9l8.9-7H87.7 M89.2,188.7H77.5l-10.4,8.2L64,208.5
					l6,8.2h11.6l10.4-8.2l3.1-11.6L89.2,188.7z"/>
			</g>
		</g>
	</g>
	<circle class="st39" cx="119.6" cy="232.8" r="116.5"/>
	<g id="Overlap">
		<path class="st6" d="M31.3,174.7l-6.7-11.5c-0.3-0.6-0.1-1.4,0.5-1.7l0,0c0.6-0.3,1.4-0.1,1.7,0.5l6.7,11.5c1.2-0.1,2.3,0.4,3,1.5
			l14.3,24.7c0.8,1.5,0.3,3.3-1.1,4.2l0,0c-1.5,0.8-3.3,0.3-4.2-1.1l-14.3-24.7C30.5,177,30.6,175.7,31.3,174.7L31.3,174.7z
			 M22.6,154.7l2.5,4.4c0.3,0.6,0.1,1.4-0.5,1.7l0,0c-0.6,0.3-1.4,0.1-1.7-0.5l-2.5-4.4c-0.3-0.6-0.1-1.4,0.5-1.7l0,0
			C21.5,153.9,22.2,154.1,22.6,154.7z"/>
		<path class="st6" d="M241,272.4l-2.1-2.9c-1.5-2.1-4.4-2.6-6.5-1.1l0,0c-2.1,1.5-2.6,4.4-1.1,6.5l2.1,2.9c0.2,0.3,0.5,0.7,0.9,0.9
			c-0.2,1,0,2,0.6,2.9l0.9,1.3c-0.3,0.3-0.5,0.8-0.7,1.2l-0.9,2.6c-0.6,1.9,0.4,4,2.3,4.6l0,0c1.9,0.6,4-0.4,4.6-2.3l0.9-2.6
			c0.2-0.7,0.2-1.4,0.1-2.1c1.2-1.2,1.4-3.2,0.3-4.6l-1.4-1.9C242.1,276.1,242.2,274,241,272.4z"/>
		<path class="st6" d="M230.3,260.8c-5.1,0-9.2,4.1-9.2,9.2s4.1,9.2,9.2,9.2c5.1,0,9.2-4.1,9.2-9.2S235.4,260.8,230.3,260.8z"/>
		<path class="st6" d="M235.3,260.6l-3.1-1.8c-2.2-1.3-5.1-0.5-6.4,1.7l0,0c-1.3,2.2-0.5,5.1,1.7,6.4l3.1,1.8
			c2.2,1.3,5.1,0.5,6.4-1.7l0,0C238.4,264.8,237.6,261.9,235.3,260.6z"/>
		<path class="st24" d="M230.9,266.6l-3.1-1.8c-2.2-1.3-5.1-0.5-6.4,1.7l0,0c-1.3,2.2-0.5,5.1,1.7,6.4l3.1,1.8
			c2.2,1.3,5.1,0.5,6.4-1.7l0,0C233.9,270.7,233.1,267.9,230.9,266.6z"/>
		<path class="st6" d="M243.4,266.8l-3.1-1.8c-2.2-1.3-5.1-0.5-6.4,1.7l0,0c-1.3,2.2-0.5,5.1,1.7,6.4l3.1,1.8
			c2.2,1.3,5.1,0.5,6.4-1.7l0,0C246.4,271,245.6,268.1,243.4,266.8z"/>
		<path class="st6" d="M230.2,273.7l-0.3-2.8c-0.2-2-2.1-3.4-4.1-3.2l0,0c-2,0.2-3.4,2.1-3.2,4.1l0.3,2.8c0.2,2,2.1,3.4,4.1,3.2l0,0
			C229,277.6,230.4,275.7,230.2,273.7z"/>
		<path class="st24" d="M231.7,274.4l-2.5-1.3c-1.8-0.9-4-0.2-4.9,1.6l0,0c-0.9,1.8-0.2,4,1.6,4.9l2.5,1.3c1.8,0.9,4,0.2,4.9-1.6
			l0,0C234.2,277.5,233.5,275.3,231.7,274.4z"/>
		<rect x="31.6" y="283.1" class="st6" width="8" height="43.3"/>
		<path class="st6" d="M39.3,326l-6.6-1.5c-0.8-0.2-1.5,0.3-1.6,1.1l0,0c-0.1,0.8,0.5,1.6,1.2,1.8l6.6,1.5c0.8,0.2,1.5-0.3,1.6-1.1
			l0,0C40.7,327,40.1,326.2,39.3,326z"/>
		<path class="st35" d="M31.1,309.4c0-0.6,0.3-1.2,0.7-1.7c0.5-0.4,1.1-0.7,1.8-0.7h5c0.7,0,1.3,0.3,1.8,0.7c0.5,0.4,0.7,1,0.8,1.7
			v3.2c0,0.6-0.3,1.2-0.7,1.7c-0.5,0.4-1.1,0.7-1.8,0.7h-5c-0.7,0-1.3-0.3-1.8-0.7c-0.5-0.4-0.7-1-0.8-1.7L31.1,309.4L31.1,309.4z
			 M33,313.2c0.2,0.1,0.4,0.2,0.6,0.2h5c0.2,0,0.4-0.1,0.6-0.2c0.1-0.1,0.2-0.3,0.2-0.5v-3.2c0-0.2-0.1-0.4-0.2-0.6
			c-0.1-0.1-0.4-0.2-0.6-0.2h-5c-0.2,0-0.4,0.1-0.6,0.2c-0.1,0.1-0.2,0.3-0.2,0.5v3.2C32.8,312.8,32.9,313,33,313.2z"/>
	</g>
</g>
<g>
	
		<linearGradient id="SVGID_2_" gradientUnits="userSpaceOnUse" x1="149.7" y1="297.45" x2="207.3348" y2="297.45" gradientTransform="matrix(1 0 0 -1 0 446)">
		<stop  offset="0" style="stop-color:#ED1E45;stop-opacity:0"/>
		<stop  offset="1" style="stop-color:#ED0045"/>
	</linearGradient>
	<polygon class="st40" points="151.8,198.5 207.4,238 207.4,59.1 149.7,192.3 	"/>
	
		<linearGradient id="SVGID_3_" gradientUnits="userSpaceOnUse" x1="157" y1="297.45" x2="455" y2="297.45" gradientTransform="matrix(1 0 0 -1 0 446)">
		<stop  offset="0" style="stop-color:#ED1E45;stop-opacity:0"/>
		<stop  offset="3.350515e-02" style="stop-color:#ED1E45;stop-opacity:0.5"/>
		<stop  offset="1" style="stop-color:#ED1E45"/>
	</linearGradient>
	<polygon class="st41" points="159.1,198.5 455,239.1 455,58 157,192.3 	"/>
	<g>
		<rect x="207.4" y="58.6" class="st42" width="247.6" height="180"/>
		<path class="st1" d="M436.8,230.8H225.6c-5.7,0-10.4-4.7-10.4-10.4V76.8c0-5.7,4.7-10.4,10.4-10.4h211.2c5.7,0,10.4,4.7,10.4,10.4
			v143.6C447.2,226.1,442.5,230.8,436.8,230.8z"/>
		<rect x="227.7" y="127.8" class="st2" width="207.1" height="88.4"/>
		<rect x="207.9" y="123.6" class="st42" width="246.6" height="45.8"/>
		
			<ellipse transform="matrix(0.1602 -0.9871 0.9871 0.1602 111.1219 330.0081)" class="st2" cx="249.5" cy="99.7" rx="19.8" ry="19.8"/>
	</g>
	<g>
		<rect x="207.4" y="37.3" class="st42" width="78.6" height="21.8"/>
	</g>
</g>
<g>
	<path class="st3" d="M218.1,52.1H215l-0.5,2.3h-3l3.3-11h3.5l3.3,11h-3.1L218.1,52.1z M217.5,49.9l-0.2-0.8
		c-0.1-0.5-0.3-1.1-0.4-1.7c-0.1-0.6-0.3-1.2-0.4-1.8h-0.1c-0.1,0.6-0.3,1.2-0.4,1.8s-0.3,1.2-0.4,1.7l-0.2,0.8H217.5z"/>
	<path class="st3" d="M222.7,43.5h3l2.4,4.9l1,2.5h0.1c0-0.3-0.1-0.6-0.1-1c0-0.3-0.1-0.7-0.1-1.1c0-0.4-0.1-0.7-0.1-1.1
		c0-0.4,0-0.7,0-1.1v-3.2h2.8v11h-3l-2.4-4.9l-1-2.5h-0.1c0.1,0.6,0.1,1.3,0.2,2.1c0.1,0.7,0.1,1.5,0.1,2.1v3.2h-2.8V43.5z"/>
	<path class="st3" d="M238.6,54.7c-1.5,0-2.7-0.4-3.4-1.3c-0.7-0.9-1.1-2.3-1.1-4.2v-5.7h2.9v6c0,1,0.1,1.7,0.4,2.1
		c0.3,0.4,0.7,0.6,1.3,0.6c0.6,0,1-0.2,1.3-0.6c0.3-0.4,0.4-1.1,0.4-2.1v-6h2.8v5.7c0,1.9-0.4,3.3-1.1,4.2S240.1,54.7,238.6,54.7z
		 M237.1,41.6l3.1-2.4l1.5,1.9l-3.3,2L237.1,41.6z"/>
	<path class="st3" d="M245.5,43.5h3l2.4,4.9l1,2.5h0.1c0-0.3-0.1-0.6-0.1-1c0-0.3-0.1-0.7-0.1-1.1c0-0.4-0.1-0.7-0.1-1.1
		s0-0.7,0-1.1v-3.2h2.8v11h-3l-2.4-4.9l-1-2.5h-0.1c0.1,0.6,0.1,1.3,0.2,2.1c0.1,0.7,0.1,1.5,0.1,2.1v3.2h-2.8V43.5z"/>
	<path class="st3" d="M261.6,54.7c-0.7,0-1.4-0.1-2-0.3s-1.2-0.6-1.7-1c-0.5-0.5-0.9-1.1-1.1-1.8c-0.3-0.7-0.4-1.5-0.4-2.5
		c0-0.9,0.1-1.7,0.4-2.5s0.7-1.3,1.2-1.8s1.1-0.9,1.7-1.1s1.3-0.4,2-0.4c0.7,0,1.4,0.1,2,0.4c0.6,0.3,1.1,0.6,1.5,1l-1.5,1.9
		c-0.3-0.2-0.5-0.4-0.8-0.6c-0.3-0.2-0.6-0.2-1-0.2c-0.3,0-0.6,0.1-0.9,0.2c-0.3,0.1-0.5,0.4-0.8,0.6s-0.4,0.6-0.5,1
		c-0.1,0.4-0.2,0.8-0.2,1.3c0,1,0.2,1.8,0.7,2.4s1,0.8,1.7,0.8c0.4,0,0.8-0.1,1.1-0.3c0.3-0.2,0.6-0.4,0.9-0.7l1.5,1.8
		c-0.5,0.5-1,0.9-1.6,1.2C263,54.5,262.3,54.7,261.6,54.7z"/>
	<path class="st3" d="M266.7,43.5h2.9v11h-2.9V43.5z"/>
	<path class="st3" d="M276.7,54.7c-0.8,0-1.5-0.1-2.1-0.4c-0.6-0.3-1.2-0.6-1.6-1.1s-0.8-1.1-1-1.8c-0.2-0.7-0.4-1.5-0.4-2.4
		c0-0.9,0.1-1.7,0.4-2.4c0.2-0.7,0.6-1.3,1-1.8c0.4-0.5,1-0.8,1.6-1.1c0.6-0.2,1.3-0.4,2.1-0.4c0.8,0,1.4,0.1,2.1,0.4
		c0.6,0.2,1.2,0.6,1.6,1.1c0.4,0.5,0.8,1.1,1,1.8s0.4,1.5,0.4,2.4c0,0.9-0.1,1.7-0.4,2.4s-0.6,1.3-1,1.8s-1,0.9-1.6,1.1
		S277.5,54.7,276.7,54.7z M276.7,52.2c0.7,0,1.2-0.3,1.6-0.9c0.4-0.6,0.6-1.4,0.6-2.4c0-1-0.2-1.8-0.6-2.3c-0.4-0.5-0.9-0.8-1.6-0.8
		s-1.2,0.3-1.6,0.8c-0.4,0.5-0.6,1.3-0.6,2.3c0,1,0.2,1.8,0.6,2.4C275.5,51.9,276,52.2,276.7,52.2z"/>
</g>
<g>
	<path class="st2" d="M280.8,91.9h5.1c0.8,0,1.5,0.1,2.2,0.2c0.7,0.1,1.3,0.4,1.8,0.8c0.5,0.4,0.9,0.8,1.2,1.4
		c0.3,0.6,0.5,1.3,0.5,2.2c0,0.9-0.2,1.6-0.5,2.2c-0.3,0.6-0.7,1.1-1.2,1.5c-0.5,0.4-1.1,0.7-1.8,0.9s-1.4,0.3-2.1,0.3h-1.5v4.4
		h-3.7V91.9z M285.9,98.5c0.7,0,1.3-0.2,1.6-0.5c0.3-0.3,0.5-0.8,0.5-1.5s-0.2-1.1-0.6-1.3s-0.9-0.4-1.7-0.4h-1.2v3.7H285.9z"/>
	<path class="st2" d="M299.4,102.9h-3.9l-0.7,3H291l4.2-13.9h4.5l4.2,13.9h-3.9L299.4,102.9z M298.7,100l-0.2-1
		c-0.2-0.7-0.3-1.4-0.5-2.2c-0.2-0.8-0.3-1.5-0.5-2.2h-0.1c-0.2,0.7-0.3,1.5-0.5,2.2c-0.2,0.8-0.3,1.5-0.5,2.2l-0.2,1H298.7z"/>
	<path class="st2" d="M306.3,95h-3.7v-3.1h11.1V95H310v10.8h-3.7V95z"/>
	<path class="st2" d="M323.2,105.8l-2.4-4.7h-1.4v4.7h-3.7V91.9h5.3c0.7,0,1.5,0.1,2.1,0.2c0.7,0.1,1.3,0.4,1.8,0.7
		c0.5,0.3,0.9,0.8,1.2,1.4c0.3,0.6,0.5,1.3,0.5,2.2c0,1-0.2,1.8-0.6,2.5c-0.4,0.7-1,1.2-1.6,1.5l3,5.4H323.2z M319.4,98.2h1.3
		c1.5,0,2.2-0.6,2.2-1.8c0-0.6-0.2-1-0.6-1.2c-0.4-0.2-0.9-0.3-1.7-0.3h-1.3V98.2z"/>
	<path class="st2" d="M335.1,106.1c-1,0-1.9-0.2-2.6-0.5s-1.5-0.8-2-1.4c-0.6-0.6-1-1.4-1.3-2.3c-0.3-0.9-0.5-1.9-0.5-3.1
		s0.2-2.2,0.5-3.1s0.8-1.6,1.3-2.3s1.2-1.1,2-1.4c0.8-0.3,1.7-0.5,2.6-0.5c1,0,1.8,0.2,2.6,0.5c0.8,0.3,1.5,0.8,2,1.4
		c0.6,0.6,1,1.4,1.3,2.3c0.3,0.9,0.5,1.9,0.5,3s-0.2,2.2-0.5,3.1c-0.3,0.9-0.8,1.7-1.3,2.3c-0.6,0.6-1.2,1.1-2,1.4
		C336.9,105.9,336,106.1,335.1,106.1z M335.1,102.9c0.8,0,1.5-0.4,2-1.1c0.5-0.7,0.7-1.7,0.7-3s-0.2-2.3-0.7-2.9c-0.5-0.7-1.1-1-2-1
		c-0.8,0-1.5,0.3-2,1c-0.5,0.7-0.7,1.7-0.7,2.9s0.2,2.3,0.7,3C333.6,102.5,334.2,102.9,335.1,102.9z"/>
	<path class="st2" d="M350.1,106.1c-0.9,0-1.7-0.1-2.5-0.4c-0.8-0.3-1.5-0.7-2.1-1.3c-0.6-0.6-1.1-1.3-1.4-2.2
		c-0.4-0.9-0.5-1.9-0.5-3.1c0-1.2,0.2-2.2,0.6-3.1c0.4-0.9,0.9-1.7,1.5-2.3c0.6-0.6,1.3-1.1,2.1-1.4c0.8-0.3,1.7-0.5,2.5-0.5
		c0.9,0,1.8,0.2,2.5,0.5c0.7,0.4,1.3,0.8,1.8,1.3l-1.9,2.4c-0.3-0.3-0.7-0.5-1.1-0.7c-0.4-0.2-0.8-0.3-1.3-0.3
		c-0.4,0-0.8,0.1-1.2,0.3c-0.4,0.2-0.7,0.4-1,0.8c-0.3,0.3-0.5,0.8-0.7,1.3c-0.2,0.5-0.2,1.1-0.2,1.7c0,1.3,0.3,2.3,0.8,3
		c0.6,0.7,1.3,1.1,2.2,1.1c0.5,0,1-0.1,1.4-0.4s0.8-0.5,1.1-0.8l1.9,2.3c-0.6,0.7-1.3,1.2-2.1,1.5
		C351.8,105.9,351,106.1,350.1,106.1z"/>
	<path class="st2" d="M356.6,91.9h3.7v13.9h-3.7V91.9z"/>
	<path class="st2" d="M363.4,91.9h3.8l3.1,6.2l1.3,3.1h0.1c0-0.4-0.1-0.8-0.2-1.2c-0.1-0.4-0.1-0.9-0.2-1.4c0-0.5-0.1-0.9-0.1-1.4
		c0-0.5-0.1-0.9-0.1-1.3v-4h3.5v13.9h-3.8l-3.1-6.2l-1.3-3.1h-0.1c0.1,0.8,0.2,1.7,0.3,2.6c0.1,0.9,0.2,1.8,0.2,2.7v4h-3.5V91.9z"/>
	<path class="st2" d="M384.4,102.9h-3.9l-0.7,3H376l4.2-13.9h4.5l4.2,13.9h-3.9L384.4,102.9z M383.7,100l-0.2-1
		c-0.2-0.7-0.3-1.4-0.5-2.2c-0.2-0.8-0.3-1.5-0.5-2.2h-0.1c-0.2,0.7-0.3,1.5-0.5,2.2c-0.2,0.8-0.3,1.5-0.5,2.2l-0.2,1H383.7z"/>
	<path class="st2" d="M390.3,91.9h4.1c1.1,0,2,0.1,2.9,0.4s1.6,0.7,2.3,1.2c0.6,0.6,1.1,1.3,1.5,2.1c0.4,0.9,0.5,1.9,0.5,3.2
		s-0.2,2.3-0.5,3.2c-0.3,0.9-0.8,1.6-1.4,2.2c-0.6,0.6-1.4,1-2.2,1.3c-0.8,0.3-1.8,0.4-2.8,0.4h-4.3V91.9z M394.2,102.9
		c0.5,0,1-0.1,1.4-0.2c0.4-0.1,0.8-0.3,1.1-0.6s0.6-0.7,0.8-1.2s0.3-1.2,0.3-2c0-0.8-0.1-1.5-0.3-2c-0.2-0.5-0.4-0.9-0.8-1.2
		c-0.3-0.3-0.7-0.5-1.1-0.6c-0.4-0.1-0.9-0.2-1.4-0.2H394v8H394.2z"/>
	<path class="st2" d="M409.9,106.1c-1,0-1.9-0.2-2.6-0.5s-1.5-0.8-2-1.4c-0.6-0.6-1-1.4-1.3-2.3c-0.3-0.9-0.5-1.9-0.5-3.1
		s0.2-2.2,0.5-3.1s0.8-1.6,1.3-2.3s1.2-1.1,2-1.4c0.8-0.3,1.7-0.5,2.6-0.5c1,0,1.8,0.2,2.6,0.5c0.8,0.3,1.5,0.8,2,1.4
		c0.6,0.6,1,1.4,1.3,2.3c0.3,0.9,0.5,1.9,0.5,3s-0.2,2.2-0.5,3.1c-0.3,0.9-0.8,1.7-1.3,2.3c-0.6,0.6-1.2,1.1-2,1.4
		C411.8,105.9,410.9,106.1,409.9,106.1z M409.9,102.9c0.8,0,1.5-0.4,2-1.1c0.5-0.7,0.7-1.7,0.7-3s-0.2-2.3-0.7-2.9
		c-0.5-0.7-1.1-1-2-1c-0.8,0-1.5,0.3-2,1c-0.5,0.7-0.7,1.7-0.7,2.9s0.2,2.3,0.7,3C408.4,102.5,409.1,102.9,409.9,102.9z"/>
</g>
<g>
	<path class="st3" d="M230,133.9h7.5c1.9,0,3.7,0.2,5.3,0.7c1.6,0.5,3,1.2,4.1,2.2c1.1,1,2,2.3,2.7,3.9c0.6,1.6,1,3.5,1,5.7
		c0,2.2-0.3,4.2-0.9,5.8c-0.6,1.6-1.5,2.9-2.6,4c-1.1,1-2.5,1.8-4,2.3c-1.5,0.5-3.2,0.7-5.1,0.7H230V133.9z M237.1,153.8
		c0.9,0,1.8-0.1,2.6-0.3c0.8-0.2,1.5-0.6,2.1-1.2c0.6-0.5,1-1.3,1.4-2.3c0.3-1,0.5-2.2,0.5-3.7s-0.2-2.7-0.5-3.6s-0.8-1.7-1.4-2.2
		c-0.6-0.5-1.3-0.9-2.1-1.1c-0.8-0.2-1.7-0.3-2.6-0.3h-0.4v14.6H237.1z"/>
	<path class="st3" d="M255,133.9h16.4v5.6h-9.7v4h8.3v5.6h-8.3v4.5h10.1v5.6H255V133.9z"/>
	<path class="st3" d="M281.5,139.5h-6.7v-5.6h20.1v5.6h-6.7v19.7h-6.7V139.5z"/>
	<path class="st3" d="M298.7,133.9h16.4v5.6h-9.7v4h8.3v5.6h-8.3v4.5h10.1v5.6h-16.8V133.9z"/>
	<path class="st3" d="M331.4,159.7c-1.6,0-3.2-0.3-4.6-0.8c-1.5-0.5-2.8-1.3-3.9-2.4c-1.1-1.1-2-2.4-2.6-4.1c-0.7-1.6-1-3.5-1-5.7
		c0-2.1,0.3-4,1-5.7c0.7-1.7,1.6-3,2.7-4.2c1.1-1.1,2.4-2,3.9-2.6c1.5-0.6,3-0.9,4.6-0.9c1.7,0,3.2,0.3,4.5,1
		c1.3,0.7,2.4,1.4,3.4,2.4l-3.5,4.3c-0.6-0.5-1.3-1-1.9-1.3s-1.4-0.5-2.3-0.5c-0.8,0-1.5,0.2-2.1,0.5c-0.7,0.3-1.2,0.8-1.8,1.4
		s-0.9,1.4-1.2,2.3c-0.3,0.9-0.4,1.9-0.4,3.1c0,2.4,0.5,4.2,1.5,5.5s2.3,1.9,4,1.9c1,0,1.9-0.2,2.6-0.6c0.8-0.4,1.4-0.9,2-1.5
		l3.5,4.2c-1.1,1.2-2.3,2.2-3.8,2.8C334.5,159.4,333,159.7,331.4,159.7z"/>
	<path class="st3" d="M347.7,139.5H341v-5.6h20.1v5.6h-6.7v19.7h-6.7V139.5z"/>
	<path class="st3" d="M375.3,153.8h-7.1l-1.2,5.4h-6.9l7.7-25.4h8.1l7.7,25.4h-7.1L375.3,153.8z M374.1,148.7l-0.4-1.8
		c-0.3-1.2-0.6-2.5-0.9-4c-0.3-1.4-0.6-2.8-0.9-4.1h-0.2c-0.3,1.3-0.6,2.7-0.9,4.1c-0.3,1.4-0.6,2.7-0.9,4l-0.4,1.8H374.1z"/>
	<path class="st3" d="M386,133.9h7.5c1.9,0,3.7,0.2,5.3,0.7c1.6,0.5,3,1.2,4.1,2.2c1.1,1,2,2.3,2.7,3.9c0.6,1.6,1,3.5,1,5.7
		c0,2.2-0.3,4.2-0.9,5.8c-0.6,1.6-1.5,2.9-2.6,4c-1.1,1-2.5,1.8-4,2.3c-1.5,0.5-3.2,0.7-5.1,0.7H386V133.9z M393.1,153.8
		c0.9,0,1.8-0.1,2.6-0.3c0.8-0.2,1.5-0.6,2.1-1.2c0.6-0.5,1-1.3,1.4-2.3c0.3-1,0.5-2.2,0.5-3.7s-0.2-2.7-0.5-3.6s-0.8-1.7-1.4-2.2
		c-0.6-0.5-1.3-0.9-2.1-1.1c-0.8-0.2-1.7-0.3-2.6-0.3h-0.4v14.6H393.1z"/>
	<path class="st3" d="M421.8,159.7c-1.8,0-3.4-0.3-4.8-0.9c-1.4-0.6-2.7-1.5-3.7-2.6c-1-1.1-1.8-2.5-2.4-4.2
		c-0.6-1.7-0.9-3.5-0.9-5.6c0-2.1,0.3-3.9,0.9-5.6c0.6-1.6,1.4-3,2.4-4.1c1-1.1,2.3-1.9,3.7-2.5c1.4-0.6,3-0.9,4.8-0.9
		c1.7,0,3.3,0.3,4.8,0.9c1.5,0.6,2.7,1.4,3.7,2.5c1,1.1,1.8,2.5,2.4,4.1c0.6,1.6,0.9,3.5,0.9,5.5c0,2.1-0.3,3.9-0.9,5.6
		c-0.6,1.7-1.4,3-2.4,4.2c-1,1.1-2.3,2-3.7,2.6C425.1,159.4,423.5,159.7,421.8,159.7z M421.8,153.9c1.5,0,2.7-0.7,3.6-2
		c0.9-1.3,1.3-3.2,1.3-5.5c0-2.3-0.4-4.1-1.3-5.4s-2.1-1.9-3.6-1.9c-1.5,0-2.7,0.6-3.6,1.9c-0.9,1.3-1.3,3-1.3,5.4
		c0,2.3,0.4,4.1,1.3,5.5C419,153.3,420.2,153.9,421.8,153.9z"/>
</g>
</svg>
