<?xml version="1.0" encoding="utf-8"?>
<!-- Generator: Adobe Illustrator 22.1.0, SVG Export Plug-In . SVG Version: 6.00 Build 0)  -->
<svg version="1.1" id="_x30_0aaa9ff-6469-4e7e-952e-cf942bd3b43a"
	 xmlns="http://www.w3.org/2000/svg" xmlns:xlink="http://www.w3.org/1999/xlink" x="0px" y="0px" viewBox="0 0 42 42"
	 style="enable-background:new 0 0 42 42;" xml:space="preserve">
<style type="text/css">
	.st0{fill:#FFFFFF;stroke:#BDBDBD;stroke-width:2;stroke-miterlimit:10;}
	.st1{fill:#FFFFFF;}
	.st2{fill:#ED1E45;}
</style>
<g>
	<polygon class="st0" points="29.3,1 12.7,1 1,12.7 1,29.3 12.7,41 29.3,41 41,29.3 41,12.7 	"/>
	<path class="st1" d="M29.3,1H12.7L1,12.7v16.6L12.7,41h16.6L41,29.3V12.7L29.3,1z M29.3,1H12.7L1,12.7v16.6L12.7,41h16.6L41,29.3
		V12.7L29.3,1z M38,28L28,38H14L4,28V14L14,4h14l10,10V28z"/>
	<polygon class="st2" points="14,4 4,14 4,28 14,38 28,38 38,28 38,14 28,4 	"/>
</g>
<g id="_x33_74b63ee-0cdc-4a92-9b9f-3e3c0f994291">
	<path class="st1" d="M11.8,24.5H8.1l-0.7,3.3H4.5l3.8-14h3.3l3.8,14h-2.9L11.8,24.5z M11.2,22l-0.3-1.3c-0.2-0.7-0.3-1.4-0.5-2.2
		c-0.2-0.8-0.3-1.5-0.5-2.3l0,0c-0.1,0.7-0.3,1.5-0.5,2.3S9.1,20,8.9,20.7L8.6,22H11.2z"/>
	<path class="st1" d="M17.1,13.8h4.2c0.6,0,1.2,0,1.8,0.2c0.5,0.1,1,0.3,1.4,0.6s0.7,0.6,1,1.1c0.2,0.4,0.3,1,0.3,1.7
		c0,0.3,0,0.6-0.1,0.9s-0.2,0.6-0.4,0.9c-0.2,0.3-0.4,0.5-0.6,0.7c-0.3,0.2-0.6,0.4-0.9,0.5v0.1c0.9,0.2,1.5,0.5,2,1.1
		c0.4,0.5,0.7,1.3,0.7,2.2c0,0.7-0.1,1.3-0.4,1.8c-0.2,0.5-0.6,0.9-1,1.3c-0.4,0.3-1,0.6-1.5,0.8c-0.6,0.2-1.2,0.3-1.8,0.2h-4.5
		V13.8H17.1z M21.2,19.5c0.7,0,1.2-0.2,1.5-0.5s0.5-0.7,0.5-1.3c0-0.5-0.2-0.9-0.5-1.1c-0.3-0.2-0.8-0.3-1.4-0.3H20v3.2H21.2z
		 M21.4,25.4c1.5,0,2.3-0.6,2.3-1.9c0-0.6-0.2-1.1-0.6-1.3c-0.4-0.3-0.9-0.4-1.7-0.4h-1.6v3.7h1.6C21.4,25.5,21.4,25.4,21.4,25.4z"
		/>
	<path class="st1" d="M28.3,13.8h4.4c0.6,0,1.3,0.1,1.9,0.2c0.6,0.1,1.1,0.4,1.5,0.8c0.4,0.4,0.8,0.9,1,1.4c0.2,0.6,0.4,1.3,0.4,2.1
		s-0.1,1.5-0.4,2.1c-0.2,0.6-0.6,1.1-1,1.5s-1,0.7-1.5,0.9c-0.6,0.2-1.2,0.3-1.8,0.3H31v4.8h-2.7V13.8z M32.6,20.5
		c1.5,0,2.2-0.7,2.2-2.2c0-0.7-0.2-1.2-0.6-1.5c-0.4-0.3-0.9-0.5-1.7-0.5H31v4.2H32.6z"/>
</g>
</svg>
